<svg xmlns="http://www.w3.org/2000/svg" width="960" height="380" viewBox="0 0 960 380" role="img" aria-label="Oleksandr Burda — Full-stack developer shipping SaaS products end to end. Next.js, React, TypeScript, Node.js. Dortmund, Germany.">
<style>
  @keyframes drift { 0%,100% { transform: translate(0,0) scale(1) } 50% { transform: translate(-36px,22px) scale(1.1) } }
  @keyframes drift2 { 0%,100% { transform: translate(0,0) scale(1) } 50% { transform: translate(30px,-18px) scale(0.92) } }
  @keyframes rise { from { transform: translateY(16px) } to { transform: none } }
  @keyframes fly { from { transform: translateY(36px) scale(0.94) } to { transform: none } }
  @keyframes float { 0%,100% { transform: translateY(0) } 50% { transform: translateY(-7px) } }
  @keyframes ping { 0% { opacity: .55; transform: scale(1) } 75%,100% { opacity: 0; transform: scale(2.4) } }
  @keyframes sheen { 0%,60% { transform: translateX(-160px) } 100% { transform: translateX(560px) } }
  .blob { transform-box: fill-box; transform-origin: center }
  .b1 { animation: drift 16s ease-in-out infinite }
  .b2 { animation: drift2 19s ease-in-out infinite }
  .b3 { animation: drift 23s ease-in-out -6s infinite }
  .r { transform-box: fill-box; animation: rise .9s cubic-bezier(.16,1,.3,1) both }
  .c { transform-box: fill-box; transform-origin: center; animation: fly 1.1s cubic-bezier(.34,1.56,.64,1) both }
  .fl { animation: float 7s ease-in-out infinite }
  .halo { transform-box: fill-box; transform-origin: center; animation: ping 2.2s ease-out infinite }
  .sheen { animation: sheen 6s ease-in-out 1.5s infinite }
  @media (prefers-reduced-motion: reduce) { * { animation: none !important } }
</style>
<defs>
  <filter id="shadow" x="-30%" y="-30%" width="160%" height="170%">
    <feDropShadow dx="0" dy="14" stdDeviation="14" flood-color="#1e3a8a" flood-opacity="0.20"/>
  </filter><path id="sans500-34" d="M165 0V1490H1092V1294H393V815H1025V620H393V0Z"/><path id="sans500-220" d="M529 -14Q415 -14 329 34Q243 82 196 176Q148 270 148 408V1118H368V435Q368 314 432 246Q495 178 604 178Q679 178 738 210Q796 243 830 306Q864 368 864 456V1118H1084V0H874L873 274H894Q845 122 751 54Q657 -14 529 -14Z"/><path id="sans500-183" d="M368 1490V0H148V1490Z"/><path id="sans500-90" d="M665 -25Q498 -25 375 28Q252 81 182 180Q113 278 106 414H335Q342 333 388 280Q433 227 506 201Q579 175 664 175Q759 175 832 204Q906 234 949 288Q992 343 992 415Q992 480 954 522Q917 563 854 590Q790 618 709 639L535 687Q352 736 250 832Q147 928 147 1081Q147 1210 216 1306Q286 1403 406 1456Q525 1510 675 1510Q828 1510 944 1456Q1061 1403 1128 1310Q1194 1217 1197 1098H975Q964 1200 880 1256Q797 1312 670 1312Q580 1312 514 1284Q447 1256 410 1206Q374 1157 374 1094Q374 1023 418 980Q461 936 524 910Q586 885 643 870L788 832Q859 814 934 784Q1010 753 1074 704Q1138 656 1178 584Q1217 513 1217 412Q1217 286 1152 187Q1087 88 964 32Q840 -25 665 -25Z"/><path id="sans500-217" d="M626 1118V939H20V1118ZM183 1384H403V302Q403 235 432 204Q460 172 525 172Q542 172 570 176Q598 180 618 184L657 8Q622 -4 582 -10Q542 -15 503 -15Q351 -15 267 64Q183 142 183 284Z"/><path id="sans500-130" d="M461 -25Q355 -25 269 14Q183 54 133 130Q83 206 83 316Q83 411 120 472Q156 533 218 569Q281 605 358 623Q434 641 513 650Q612 662 674 670Q736 677 766 694Q795 712 795 751V757Q795 820 771 863Q747 906 700 930Q652 953 581 953Q508 953 456 930Q403 908 370 873Q338 838 322 800L115 854Q153 954 224 1015Q295 1076 387 1104Q479 1132 577 1132Q645 1132 721 1116Q797 1100 864 1058Q931 1016 973 940Q1015 864 1015 742V0H802V153H791Q769 110 726 69Q683 28 618 2Q552 -25 461 -25ZM510 152Q600 152 664 187Q728 222 762 280Q796 338 796 403V546Q784 534 750 524Q717 515 674 508Q631 500 591 495Q551 490 525 487Q463 479 412 460Q360 441 330 406Q299 371 299 313Q299 260 326 224Q354 188 401 170Q448 152 510 152Z"/><path id="sans500-146" d="M618 -23Q460 -23 343 49Q226 121 161 251Q96 381 96 553Q96 727 161 858Q226 988 343 1060Q460 1132 618 1132Q705 1132 781 1110Q857 1087 918 1044Q980 1002 1022 940Q1065 879 1086 802L877 752Q866 795 843 830Q820 866 788 892Q755 918 712 932Q670 946 619 946Q518 946 452 892Q385 839 352 750Q320 661 320 553Q320 446 352 358Q385 269 452 216Q518 163 619 163Q671 163 714 178Q757 192 791 218Q825 245 848 282Q871 320 881 365L1089 315Q1069 236 1026 174Q983 111 922 67Q860 23 783 0Q706 -23 618 -23Z"/><path id="sans500-180" d="M351 377V646H388L829 1118H1093L588 577H551ZM148 0V1490H368V0ZM852 0 455 528 607 684 1124 0Z"/><path id="sans500-21" d="M649 0H281V200H637Q806 200 918 263Q1030 326 1086 448Q1142 571 1142 747Q1142 922 1086 1043Q1031 1164 922 1227Q812 1290 649 1290H273V1490H664Q884 1490 1041 1401Q1198 1312 1282 1146Q1366 979 1366 747Q1366 514 1282 347Q1197 180 1036 90Q876 0 649 0ZM393 1490V0H165V1490Z"/><path id="sans500-151" d="M630 -23Q465 -23 345 48Q225 119 160 248Q96 377 96 551Q96 723 160 854Q223 985 339 1058Q455 1132 611 1132Q707 1132 796 1100Q885 1069 956 1002Q1027 935 1068 828Q1110 722 1110 570V492H219V656H997L894 602Q894 705 862 784Q830 862 768 906Q705 950 611 950Q518 950 452 905Q386 860 352 786Q317 713 317 626V514Q317 399 356 320Q396 240 467 200Q538 159 632 159Q694 159 744 176Q794 194 830 230Q867 265 886 317L1093 268Q1066 182 1002 116Q939 50 844 14Q750 -23 630 -23Z"/><path id="sans500-230" d="M468 0 46 1118H284L505 483Q542 378 568 272Q594 167 623 63H557Q585 167 611 272Q637 378 673 483L894 1118H1130L708 0Z"/><path id="sans500-195" d="M618 -23Q461 -23 344 49Q226 121 161 251Q96 381 96 553Q96 727 161 858Q226 988 344 1060Q461 1132 618 1132Q776 1132 894 1060Q1011 988 1076 858Q1141 727 1141 553Q1141 381 1076 251Q1011 121 894 49Q776 -23 618 -23ZM618 163Q720 163 786 216Q853 270 886 358Q918 447 918 553Q918 660 886 750Q853 839 786 892Q720 946 618 946Q517 946 451 892Q385 839 352 750Q320 661 320 553Q320 447 352 358Q385 270 451 216Q517 163 618 163Z"/><path id="sans500-207" d="M148 -418V1118H362V936H380Q400 971 436 1017Q471 1063 534 1098Q598 1132 703 1132Q837 1132 942 1064Q1048 996 1109 867Q1170 738 1170 556Q1170 376 1110 246Q1050 117 944 48Q839 -22 703 -22Q602 -22 538 12Q473 47 436 93Q400 139 380 175H368V-418ZM654 165Q750 165 815 217Q880 269 912 358Q945 447 945 558Q945 668 912 756Q880 843 816 894Q751 945 654 945Q560 945 495 896Q430 848 397 762Q364 675 364 558Q364 442 398 354Q431 265 496 215Q561 165 654 165Z"/><path id="sans500-210" d="M148 0V1118H361V938H373Q404 1030 481 1082Q558 1134 656 1134Q677 1134 704 1132Q731 1131 749 1128V918Q737 922 703 926Q669 930 634 930Q558 930 497 898Q436 866 402 810Q368 753 368 679V0Z"/><path id="sans500-58" d="M165 0V1490H501L826 635Q840 597 858 539Q875 481 894 413Q913 345 930 279Q947 213 960 160H912Q925 210 942 276Q959 341 978 409Q997 477 1015 537Q1033 597 1047 635L1367 1490H1705V0H1478V802Q1478 848 1479 912Q1480 976 1482 1048Q1483 1119 1484 1192Q1486 1265 1487 1332H1504Q1484 1259 1460 1182Q1437 1104 1414 1032Q1392 960 1372 900Q1351 841 1337 802L1032 0H837L528 802Q513 840 494 898Q474 957 451 1028Q428 1100 404 1178Q380 1255 356 1332H376Q378 1271 380 1200Q381 1128 382 1055Q384 982 386 916Q387 851 387 802V0Z"/><path id="sans500-161" d="M615 -442Q486 -442 391 -409Q296 -376 234 -321Q173 -266 141 -199L325 -112Q345 -144 378 -180Q412 -215 469 -240Q526 -265 615 -265Q743 -265 822 -204Q902 -144 902 -15V203H883Q863 166 828 123Q792 80 728 48Q665 17 563 17Q431 17 326 79Q220 141 158 263Q96 385 96 563Q96 741 158 868Q219 996 326 1064Q432 1132 566 1132Q669 1132 734 1098Q798 1064 834 1018Q871 971 890 936H906V1118H1121V-16Q1121 -163 1054 -258Q988 -352 874 -397Q759 -442 615 -442ZM614 200Q708 200 772 244Q837 287 870 370Q903 452 903 566Q903 679 870 764Q837 849 772 897Q708 945 614 945Q517 945 452 894Q387 844 354 758Q321 673 321 566Q321 457 354 374Q387 292 452 246Q518 200 614 200Z"/><path id="sans500-190" d="M368 662V0H148V1118H358L360 844H337Q386 994 479 1063Q572 1132 704 1132Q818 1132 903 1084Q988 1036 1036 942Q1084 849 1084 710V0H864V683Q864 804 801 872Q738 940 628 940Q554 940 495 908Q436 875 402 813Q368 751 368 662Z"/><path id="sans500-167" d="M148 0V1118H368V0ZM259 1289Q202 1289 162 1327Q121 1365 121 1419Q121 1474 162 1512Q202 1550 259 1550Q316 1550 357 1512Q398 1474 398 1419Q398 1365 357 1327Q316 1289 259 1289Z"/><path id="sans500-66" d="M786 -20Q593 -20 440 72Q288 163 200 334Q113 506 113 744Q113 983 200 1154Q288 1326 440 1418Q593 1510 786 1510Q979 1510 1130 1418Q1282 1326 1370 1154Q1457 983 1457 744Q1457 506 1370 334Q1282 163 1130 72Q979 -20 786 -20ZM786 188Q913 188 1014 252Q1114 315 1172 440Q1231 564 1231 744Q1231 926 1172 1050Q1114 1175 1014 1238Q913 1302 786 1302Q658 1302 557 1238Q456 1174 398 1050Q339 925 339 744Q339 564 398 440Q456 316 557 252Q658 188 786 188Z"/><path id="display-20" d="M73 0V660H217V0ZM141 247V365H526V247ZM141 537V660H564V537Z"/><path id="display-109" d="M244 -14Q152 -14 105 48Q58 111 58 239V525H203V256Q203 180 226 142Q249 105 297 105Q325 105 346 118Q366 132 381 158Q396 183 404 216Q412 250 413 290V525H556V215V0H440V164H421Q406 102 384 62Q361 23 326 4Q292 -14 244 -14Z"/><path id="display-90" d="M66 0V715H207V0Z"/><path id="display-192" d="M31 201V331H321V201Z"/><path id="display-106" d="M276 -14Q223 -14 180 -4Q138 6 107 25Q76 44 56 70Q37 97 31 129L140 174Q145 153 162 134Q180 115 211 104Q242 92 286 92Q331 92 356 106Q381 119 381 144Q381 163 367 174Q353 185 326 193Q300 201 261 209Q223 217 185 227Q147 237 114 255Q81 273 62 303Q42 333 42 378Q42 426 68 462Q93 498 143 518Q193 539 265 539Q330 539 379 522Q428 504 460 472Q491 439 501 394L385 354Q381 380 365 398Q349 415 324 424Q299 434 265 434Q223 434 199 420Q175 406 175 382Q175 363 190 351Q206 339 234 332Q262 324 300 316Q339 308 377 298Q415 287 446 270Q477 253 495 225Q513 197 513 153Q513 101 486 64Q458 26 405 6Q352 -14 276 -14Z"/><path id="display-108" d="M261 -12Q173 -12 132 34Q90 81 90 183V412H14L17 524H69Q99 525 114 534Q130 543 134 567L146 642H228V525H360V408H228V189Q228 153 245 137Q262 121 296 121Q315 121 333 125Q351 129 364 138V4Q333 -6 307 -9Q281 -12 261 -12Z"/><path id="display-59" d="M189 -14Q146 -14 112 4Q78 21 58 54Q39 87 39 136Q39 179 56 208Q72 237 104 255Q136 273 183 285Q230 297 291 306Q322 311 342 316Q363 320 373 330Q383 341 383 361Q383 389 363 409Q343 429 299 429Q271 429 246 419Q222 409 204 389Q187 369 179 338L52 377Q64 417 86 448Q108 478 140 498Q172 519 214 529Q255 539 303 539Q379 539 428 514Q477 490 500 438Q524 387 524 306V217Q524 182 526 146Q527 109 530 72Q532 36 536 0H409Q405 25 402 58Q398 90 396 124H379Q364 86 338 54Q312 22 274 4Q237 -14 189 -14ZM251 90Q269 90 289 96Q309 103 327 116Q345 129 361 148Q377 167 386 191L384 275L408 270Q389 257 365 250Q341 242 316 238Q290 234 265 229Q240 224 220 216Q201 209 190 195Q178 181 178 157Q178 126 198 108Q218 90 251 90Z"/><path id="display-68" d="M308 -14Q240 -14 190 6Q139 26 106 62Q72 98 54 148Q37 197 37 256Q37 318 54 370Q72 421 106 459Q140 497 190 518Q239 539 304 539Q368 539 416 518Q463 497 493 460Q523 422 533 372L400 328Q397 360 384 382Q370 404 348 416Q325 427 297 427Q269 427 248 416Q226 404 212 382Q197 361 190 330Q182 300 182 262Q182 208 196 170Q211 133 240 114Q268 94 310 94Q350 94 374 110Q397 125 409 149Q421 173 424 200L549 172Q544 133 528 99Q512 65 482 40Q453 14 410 0Q367 -14 308 -14Z"/><path id="display-89" d="M66 0V716H207V317Q239 338 267 363Q295 388 319 415Q343 442 362 470Q381 498 394 525H558Q543 487 518 448Q494 410 460 378Q427 345 382 322Q338 299 286 291V274Q352 286 396 272Q441 257 470 228Q498 198 516 158Q533 118 546 78L569 0H413L400 49Q385 99 368 136Q351 172 323 192Q295 213 247 213H207V0Z"/><path id="display-70" d="M257 -14Q190 -14 142 20Q93 54 66 116Q39 178 39 263Q39 343 63 404Q87 466 134 502Q181 537 250 537Q301 537 336 518Q371 499 394 462Q416 426 429 374H452Q446 407 440 438Q435 469 432 496Q428 524 428 545V715H572V257V0H453V152H432Q421 96 398 59Q375 22 340 4Q304 -14 257 -14ZM305 104Q338 104 361 118Q384 132 399 155Q414 178 421 204Q428 230 428 253V272Q428 291 423 312Q418 332 408 352Q398 372 382 388Q367 403 347 412Q327 422 303 422Q267 422 242 402Q216 382 203 346Q190 311 190 263Q190 215 204 179Q217 143 244 124Q270 104 305 104Z"/><path id="display-72" d="M310 -14Q245 -14 194 4Q144 22 108 56Q73 90 55 140Q37 189 37 253Q37 315 55 368Q73 420 106 458Q140 497 189 518Q238 539 300 539Q361 539 408 520Q454 500 485 461Q516 422 531 366Q546 309 542 235L131 232V311L459 314L408 274Q415 328 401 362Q387 395 360 412Q334 428 301 428Q263 428 234 408Q206 387 190 349Q174 311 174 255Q174 171 211 131Q248 91 309 91Q338 91 358 98Q377 106 390 118Q402 130 410 145Q417 160 422 175L546 148Q538 111 520 82Q503 52 474 30Q445 9 404 -2Q364 -14 310 -14Z"/><path id="display-114" d="M187 0 11 524H170L280 114H297L408 524H561L385 0Z"/><path id="display-94" d="M304 -14Q226 -14 166 18Q105 49 71 111Q37 173 37 264Q37 356 72 417Q106 478 166 508Q227 539 304 539Q382 539 442 508Q503 477 538 416Q572 354 572 262Q572 169 537 108Q502 46 441 16Q380 -14 304 -14ZM309 93Q348 93 374 111Q401 129 414 166Q428 202 428 254Q428 309 414 348Q399 386 371 407Q343 428 300 428Q263 428 236 410Q209 392 195 356Q181 320 181 266Q181 181 215 137Q249 93 309 93Z"/><path id="display-102" d="M66 -167V258V525H186V380L203 378Q213 431 236 467Q258 503 294 521Q330 539 377 539Q447 539 497 504Q547 470 573 408Q599 345 599 259Q599 182 576 120Q552 58 505 22Q458 -14 386 -14Q336 -14 302 5Q267 24 244 58Q221 93 206 142H188Q194 115 198 86Q203 58 206 32Q210 5 210 -20V-167ZM336 101Q372 101 397 121Q422 141 436 176Q450 212 450 259Q450 309 436 345Q421 381 395 400Q369 420 333 420Q301 420 278 406Q254 392 239 369Q224 346 217 320Q210 293 210 270V250Q210 231 215 210Q220 190 230 170Q241 151 256 136Q271 120 292 110Q312 101 336 101Z"/><path id="display-105" d="M66 0V254V525H186V346H205Q213 413 232 455Q251 497 286 517Q322 537 374 537Q383 537 394 536Q404 536 418 533L412 380Q397 388 379 390Q361 393 348 393Q308 393 280 376Q252 358 234 324Q217 290 210 241V0Z"/><path id="display-79" d="M66 0V330V715H210V551Q210 530 208 508Q207 487 204 464Q201 442 198 418Q194 395 189 373H212Q226 424 248 462Q269 499 303 519Q337 539 389 539Q481 539 527 474Q573 410 573 278V0H429V255Q429 338 404 379Q379 420 330 420Q291 420 265 396Q239 372 225 332Q211 291 210 241V0Z"/><path id="display-80" d="M66 0V525H210V0ZM138 604Q96 604 74 622Q51 639 51 673Q51 708 74 726Q96 743 138 743Q181 743 204 726Q226 708 226 674Q226 639 204 622Q181 604 138 604Z"/><path id="display-92" d="M66 0V319V525H184V368H203Q216 425 240 464Q264 502 300 520Q337 539 387 539Q478 539 526 475Q573 411 573 274V0H429V258Q429 342 404 380Q379 419 332 419Q291 419 264 394Q237 370 224 329Q210 288 210 239V0Z"/><path id="display-78" d="M274 -182Q188 -182 132 -169Q77 -156 51 -130Q25 -103 25 -65Q25 -19 62 10Q98 39 170 44V65Q115 65 86 76Q58 88 58 117Q58 144 86 166Q115 188 180 202V223Q119 226 84 262Q49 297 49 355Q49 405 77 444Q105 484 160 508Q215 531 296 531H562V421L397 444V421Q461 412 490 389Q518 366 518 325Q518 285 491 254Q464 222 414 204Q365 187 295 187Q283 187 268 188Q254 189 218 193Q199 178 188 168Q177 157 177 148Q177 141 185 136Q193 132 206 130Q218 129 231 129H381Q401 129 433 126Q465 123 497 110Q529 97 551 68Q573 40 573 -12Q573 -70 540 -108Q508 -146 442 -164Q375 -182 274 -182ZM291 -68Q351 -68 386 -62Q420 -55 434 -40Q448 -26 448 -5Q448 15 440 26Q431 38 418 42Q404 47 390 48Q377 49 367 49H242Q199 46 180 27Q162 8 162 -15Q162 -36 176 -48Q190 -59 218 -64Q247 -68 291 -68ZM288 262Q336 262 360 286Q385 309 385 346Q385 387 360 413Q335 439 288 439Q242 439 216 414Q191 388 191 348Q191 323 202 304Q213 284 234 273Q256 262 288 262Z"/><path id="display-46" d="M327 -14Q263 -14 212 -2Q160 11 123 36Q86 62 66 100Q45 139 43 190L169 229Q171 184 192 154Q213 125 250 110Q287 96 335 96Q380 96 412 108Q443 119 459 138Q475 156 475 178Q475 204 454 220Q434 236 400 247Q366 258 321 268Q272 279 224 293Q177 307 138 329Q100 351 78 386Q55 421 55 474Q55 535 86 580Q117 624 175 649Q233 674 317 674Q401 674 460 650Q520 625 553 580Q586 536 589 475L460 439Q460 470 450 494Q440 517 422 532Q403 547 376 555Q350 563 316 563Q277 563 248 553Q220 543 206 526Q191 509 191 487Q191 459 213 442Q235 424 273 413Q311 402 355 392Q398 383 443 370Q488 356 526 334Q565 313 588 276Q612 240 612 185Q612 125 580 80Q549 35 485 10Q421 -14 327 -14Z"/><path id="sans-61" d="M180 0V1490H404L1010 537Q1034 500 1068 442Q1102 384 1142 311Q1181 238 1219 155H1192Q1183 241 1179 320Q1175 398 1174 464Q1173 530 1173 576V1490H1363V0H1137L597 848Q560 907 522 970Q485 1032 437 1118Q389 1203 318 1329H353Q358 1218 362 1124Q366 1030 368 960Q371 890 371 850V0Z"/><path id="sans-151" d="M628 -24Q466 -24 348 48Q231 120 168 249Q104 378 104 550Q104 722 166 853Q228 984 342 1058Q455 1132 607 1132Q696 1132 782 1102Q869 1073 940 1008Q1010 942 1052 835Q1094 728 1094 573V498H226V650H997L913 594Q913 704 878 790Q844 875 776 924Q708 972 607 972Q506 972 434 922Q362 873 324 794Q286 714 286 623V522Q286 398 329 312Q372 225 450 180Q527 136 629 136Q695 136 749 155Q803 174 842 212Q881 251 902 308L1076 260Q1050 176 988 112Q926 48 834 12Q743 -24 628 -24Z"/><path id="sans-238" d="M65 0 506 643 505 505 88 1118H298L437 901Q491 817 530 744Q570 671 612 603H518Q561 671 596 744Q632 817 687 901L829 1118H1035L616 497V630L1053 0H844L680 251Q627 333 588 404Q550 474 509 539H604Q563 474 528 404Q493 333 439 251L273 0Z"/><path id="sans-217" d="M598 1118V964H20V1118ZM188 1384H368V290Q368 215 398 180Q429 146 500 146Q517 146 544 150Q570 154 592 158L629 6Q601 -4 566 -9Q530 -14 495 -14Q350 -14 269 62Q188 139 188 276Z"/><path id="sans-363" d="M295 -13Q239 -13 200 26Q160 66 160 122Q160 178 200 218Q239 257 295 257Q351 257 390 218Q430 178 430 122Q430 66 390 26Q351 -13 295 -13Z"/><path id="sans-179" d="M157 1118H338V-80Q339 -186 302 -262Q265 -338 192 -378Q119 -418 10 -418H-26V-252H7Q85 -252 121 -208Q157 -163 157 -80ZM248 1301Q197 1301 160 1336Q123 1371 123 1420Q123 1470 160 1504Q197 1539 248 1539Q300 1539 337 1504Q374 1470 374 1420Q374 1371 337 1336Q300 1301 248 1301Z"/><path id="sans-213" d="M538 -24Q423 -24 334 10Q244 43 186 109Q128 175 108 271L279 312Q303 220 370 177Q436 134 536 134Q653 134 722 184Q792 234 792 303Q792 361 752 400Q711 438 628 457L442 501Q290 537 216 612Q142 688 142 806Q142 902 196 976Q250 1049 344 1090Q437 1132 556 1132Q671 1132 752 1098Q832 1063 882 1002Q933 942 958 863L795 821Q772 881 718 930Q665 979 557 979Q457 979 390 933Q324 887 324 817Q324 755 369 718Q414 680 512 657L681 617Q833 581 906 506Q979 430 979 315Q979 217 924 140Q868 64 768 20Q669 -24 538 -24Z"/><path id="sans-368" d="M295 573Q239 573 200 612Q160 652 160 708Q160 764 200 804Q239 843 295 843Q351 843 390 804Q430 764 430 708Q430 652 390 612Q351 573 295 573Z"/><path id="sans-87" d="M180 0V1490H690Q864 1490 976 1430Q1089 1371 1144 1267Q1198 1163 1198 1030Q1198 897 1144 795Q1089 693 977 636Q865 578 691 578H286V747H682Q800 747 872 782Q943 816 976 880Q1009 943 1009 1030Q1009 1119 976 1184Q943 1250 871 1286Q799 1323 680 1323H370V0ZM1036 0 676 671H890L1256 0Z"/><path id="sans-130" d="M471 -26Q365 -26 278 14Q192 54 141 131Q90 208 90 318Q90 414 128 474Q166 534 230 568Q293 603 370 620Q447 637 525 647Q625 660 688 667Q751 674 782 691Q812 708 812 749V755Q812 825 786 874Q760 922 708 948Q656 974 578 974Q498 974 441 949Q384 924 348 886Q313 849 295 810L122 867Q165 969 238 1026Q311 1084 399 1108Q487 1132 573 1132Q629 1132 700 1118Q772 1105 838 1065Q905 1025 948 946Q992 868 992 737V0H815V152H803Q784 113 742 72Q700 30 633 2Q566 -26 471 -26ZM502 133Q602 133 671 172Q740 211 776 274Q812 336 812 404V559Q801 546 764 536Q727 525 680 517Q632 509 588 504Q543 498 517 495Q452 487 396 468Q339 448 305 410Q271 373 271 309Q271 251 301 212Q331 173 383 153Q435 133 502 133Z"/><path id="sans-146" d="M613 -24Q461 -24 346 48Q232 120 168 250Q104 380 104 552Q104 727 168 858Q232 988 346 1060Q461 1132 613 1132Q694 1132 766 1111Q838 1090 898 1050Q957 1011 1000 954Q1043 896 1066 823L893 774Q881 817 856 853Q831 889 796 916Q760 942 714 956Q668 971 613 971Q501 971 429 912Q357 854 322 759Q287 664 287 552Q287 442 322 348Q357 253 429 195Q501 137 613 137Q669 137 716 152Q763 167 800 194Q836 222 861 260Q886 298 898 343L1070 294Q1048 219 1004 160Q961 102 901 60Q841 19 768 -2Q695 -24 613 -24Z"/><path id="sans-93" d="M98 1322V1490H1224V1322H757V0H567V1322Z"/><path id="sans-240" d="M140 -405 186 -249 205 -254Q260 -268 305 -262Q350 -255 386 -217Q422 -179 449 -99L481 -6L54 1118H251L489 455Q527 351 553 249Q579 147 608 51H542Q571 147 598 250Q624 352 661 455L901 1118H1097L606 -167Q572 -256 524 -314Q477 -371 414 -398Q351 -426 272 -426Q224 -426 189 -419Q154 -412 140 -405Z"/><path id="sans-207" d="M158 -418V1118H332V939H352Q371 969 405 1014Q439 1060 503 1096Q567 1132 676 1132Q816 1132 922 1062Q1029 992 1090 862Q1150 733 1150 556Q1150 378 1090 248Q1030 118 924 47Q817 -24 677 -24Q571 -24 506 12Q441 49 406 96Q371 142 352 173H338V-418ZM650 137Q755 137 826 194Q896 250 932 346Q967 441 967 558Q967 674 932 768Q897 861 826 916Q756 971 650 971Q547 971 477 919Q407 867 372 774Q336 682 336 558Q336 434 372 339Q408 244 478 190Q549 137 650 137Z"/><path id="sans-90" d="M657 -26Q496 -26 378 26Q259 78 192 172Q125 265 116 390H311Q319 306 368 252Q417 197 494 170Q570 144 657 144Q758 144 838 177Q919 210 966 270Q1013 330 1013 409Q1013 481 972 526Q932 571 865 600Q798 629 718 651L538 702Q358 753 258 848Q158 943 158 1091Q158 1217 226 1312Q294 1406 410 1458Q526 1510 670 1510Q817 1510 930 1458Q1043 1406 1108 1316Q1174 1227 1178 1114H992Q979 1223 888 1282Q797 1342 664 1342Q568 1342 496 1310Q423 1279 383 1224Q343 1170 343 1100Q343 1022 392 974Q440 927 506 900Q573 874 627 859L776 818Q836 802 908 774Q981 746 1047 700Q1113 653 1156 582Q1198 510 1198 406Q1198 284 1134 186Q1071 88 950 31Q829 -26 657 -26Z"/><path id="sans-210" d="M158 0V1118H332V946H344Q375 1031 454 1082Q534 1134 634 1134Q654 1134 682 1133Q709 1132 725 1131V950Q717 952 685 956Q653 960 617 960Q537 960 474 926Q410 893 374 834Q338 776 338 700V0Z"/><path id="sans-167" d="M158 0V1118H338V0ZM249 1301Q198 1301 161 1336Q124 1371 124 1420Q124 1470 161 1504Q198 1539 249 1539Q301 1539 338 1504Q375 1470 375 1420Q375 1371 338 1336Q301 1301 249 1301Z"/><path id="sans-195" d="M613 -24Q461 -24 346 48Q232 120 168 250Q104 380 104 552Q104 727 168 858Q232 988 346 1060Q461 1132 613 1132Q766 1132 881 1060Q996 988 1060 858Q1124 727 1124 552Q1124 380 1060 250Q996 120 881 48Q766 -24 613 -24ZM613 137Q726 137 799 195Q872 253 907 348Q942 442 942 552Q942 663 907 758Q872 854 799 912Q726 971 613 971Q501 971 429 912Q357 854 322 759Q287 664 287 552Q287 442 322 348Q357 253 429 195Q501 137 613 137Z"/><path id="sans-149" d="M577 -24Q438 -24 331 47Q224 118 164 248Q104 378 104 556Q104 733 164 862Q225 992 332 1062Q439 1132 578 1132Q687 1132 751 1096Q815 1060 850 1014Q884 969 902 939H916V1490H1096V0H922V173H902Q884 142 848 96Q813 49 748 12Q684 -24 577 -24ZM604 137Q706 137 776 190Q846 244 882 339Q918 434 918 558Q918 682 882 774Q847 867 777 919Q707 971 604 971Q498 971 428 916Q357 861 322 768Q287 674 287 558Q287 441 322 346Q358 250 429 194Q500 137 604 137Z"/><path id="sans-21" d="M645 0H285V168H633Q815 168 934 238Q1054 307 1113 437Q1172 567 1172 748Q1172 927 1114 1056Q1055 1184 940 1253Q824 1322 651 1322H277V1490H664Q882 1490 1036 1401Q1191 1312 1274 1146Q1356 979 1356 748Q1356 515 1273 348Q1190 180 1031 90Q872 0 645 0ZM370 1490V0H180V1490Z"/><path id="sans-187" d="M158 0V1118H333L334 868H320Q343 959 392 1018Q442 1078 508 1108Q575 1138 647 1138Q769 1138 844 1063Q920 988 942 866H918Q938 950 991 1011Q1044 1072 1120 1105Q1195 1138 1284 1138Q1381 1138 1461 1096Q1541 1054 1588 969Q1636 884 1636 754V0H1456V749Q1456 870 1388 922Q1320 974 1230 974Q1155 974 1100 942Q1046 911 1016 856Q987 801 987 730V0H807V767Q807 860 745 917Q683 974 588 974Q523 974 466 944Q408 913 373 853Q338 793 338 704V0Z"/><path id="sans-220" d="M537 -14Q424 -14 338 32Q253 79 206 173Q158 267 158 408V1118H338V423Q338 294 406 221Q474 148 591 148Q671 148 734 183Q798 218 835 286Q872 353 872 448V1118H1053V0H879V271H903Q851 114 756 50Q660 -14 537 -14Z"/><path id="sans-190" d="M338 670V0H158V1118H331L332 847H307Q358 1002 452 1067Q547 1132 674 1132Q787 1132 872 1086Q957 1039 1004 946Q1052 852 1052 710V0H872V695Q872 824 804 897Q737 970 620 970Q540 970 476 935Q412 900 375 833Q338 766 338 670Z"/><path id="sans-362" d="M128 -359 216 208H422L266 -359Z"/><path id="sans-35" d="M789 -20Q590 -20 440 73Q290 166 206 338Q122 509 122 744Q122 981 206 1152Q290 1324 438 1417Q586 1510 777 1510Q895 1510 998 1475Q1100 1440 1181 1375Q1262 1310 1316 1220Q1369 1131 1389 1023H1193Q1170 1095 1132 1152Q1094 1209 1042 1250Q989 1291 923 1312Q857 1334 778 1334Q647 1334 540 1266Q433 1199 370 1068Q307 936 307 744Q307 554 370 423Q434 292 543 224Q652 156 789 156Q915 156 1011 210Q1107 263 1160 362Q1214 460 1214 594L1271 583H828V749H1400V586Q1400 401 1321 265Q1242 129 1104 54Q967 -20 789 -20Z"/><path id="mono-32" d="M81 0V730H217L430 123Q428 152 425 192Q422 232 420 275Q419 318 419 353V730H519V0H383L171 607Q173 581 176 542Q178 503 180 461Q181 419 181 383V0Z"/><path id="mono-34" d="M300 -10Q232 -10 182 16Q133 41 106 90Q80 138 80 203V527Q80 593 106 641Q133 689 182 714Q232 740 300 740Q368 740 418 714Q467 689 494 641Q520 593 520 528V203Q520 138 494 90Q467 41 418 16Q368 -10 300 -10ZM300 86Q355 86 384 116Q412 147 412 203V527Q412 584 384 614Q355 644 300 644Q246 644 217 614Q188 584 188 527V203Q188 147 217 116Q246 86 300 86Z"/><path id="mono-54" d="M100 0 21 730H118L167 206Q169 186 170 162Q172 138 174 115Q175 92 175 75Q177 92 179 115Q181 138 184 162Q186 186 189 206L252 730H352L411 206Q413 186 416 162Q418 138 421 115Q424 92 425 75Q426 92 428 115Q429 138 431 162Q433 186 435 206L485 730H579L497 0H372L313 531Q311 552 309 576Q307 599 305 622Q303 644 301 659Q300 644 298 622Q296 599 294 576Q292 552 289 531L226 0Z"/><path id="display-13" d="M142 0V117H334Q390 117 427 142Q464 166 482 213Q501 260 501 328Q501 384 490 424Q478 465 455 491Q432 517 396 530Q360 543 312 543H142V660H307Q427 660 504 621Q580 582 616 510Q651 437 651 336Q651 261 634 204Q616 148 586 109Q555 70 514 46Q474 22 429 11Q384 0 338 0ZM73 0V660H217V0Z"/><path id="sans500-368" d="M311 560Q249 560 206 603Q163 646 163 707Q163 769 206 812Q249 854 311 854Q372 854 415 812Q458 769 458 707Q458 646 415 603Q372 560 311 560Z"/><path id="sans500-87" d="M165 0V1490H699Q871 1490 986 1430Q1101 1371 1158 1265Q1215 1159 1215 1022Q1215 884 1158 780Q1100 677 985 620Q870 563 697 563H296V758H675Q785 758 852 790Q920 821 952 880Q984 939 984 1022Q984 1106 952 1167Q920 1228 852 1262Q784 1295 673 1295H393V0ZM1012 0 651 673H904L1271 0Z"/><path id="sans500-187" d="M148 0V1118H357L363 859H346Q370 954 420 1015Q470 1076 537 1106Q604 1137 677 1137Q799 1137 874 1062Q949 986 975 851H947Q969 943 1023 1007Q1077 1071 1154 1104Q1230 1137 1317 1137Q1416 1137 1496 1094Q1577 1051 1624 966Q1671 881 1671 754V0H1451V732Q1451 844 1388 894Q1326 944 1241 944Q1172 944 1122 915Q1072 886 1045 834Q1018 783 1018 716V0H801V746Q801 836 744 890Q686 944 597 944Q536 944 484 916Q431 887 400 832Q368 776 368 695V0Z"/><path id="mono-31" d="M66 0V730H199L272 496Q283 463 291 432Q299 402 302 387Q306 402 314 432Q321 463 331 496L401 730H534V0H432V246Q432 293 434 350Q437 408 442 466Q447 525 452 578Q457 632 461 672L353 317H249L139 672Q144 633 149 582Q154 530 158 472Q162 414 165 356Q168 297 168 246V0Z"/><path id="mono-1" d="M43 0 229 730H371L557 0H448L404 185H197L153 0ZM217 274H383L333 485Q320 541 312 582Q303 624 300 639Q297 624 289 582Q281 541 267 486Z"/><path id="mono-56" d="M246 0V269L29 730H141L270 454Q283 427 291 404Q299 380 302 367Q304 380 312 404Q321 427 333 454L459 730H571L354 269V0Z"/><path id="mono-125" d="M85 0V107L311 340Q363 394 388 438Q412 481 412 524Q412 580 382 612Q351 644 298 644Q240 644 206 610Q173 577 173 519H65Q67 587 96 636Q125 686 177 713Q229 740 299 740Q366 740 416 714Q466 688 493 641Q520 594 520 530Q520 465 486 403Q453 341 377 265L212 98H531V0Z"/><path id="mono-123" d="M300 -10Q231 -10 180 17Q130 44 102 92Q74 141 74 206V524Q74 590 102 638Q129 686 180 713Q231 740 300 740Q370 740 420 713Q471 686 498 638Q526 590 526 524V206Q526 141 498 92Q470 44 420 17Q369 -10 300 -10ZM300 83Q356 83 390 117Q423 151 423 206V524Q423 579 390 613Q356 647 300 647Q244 647 210 613Q177 579 177 524V206Q177 151 210 117Q244 83 300 83ZM300 303Q272 303 254 321Q237 339 237 368Q237 396 254 414Q272 431 300 431Q328 431 346 414Q363 396 363 368Q363 339 346 321Q328 303 300 303Z"/><path id="mono-127" d="M400 0V152H73V314L357 730H477L177 288V249H400V420H507V0Z"/><path id="mono-166" d="M0 281V379H600V281Z"/><path id="mono-42" d="M84 0V730H323Q394 730 446 703Q499 676 528 626Q556 577 556 510Q556 444 527 394Q498 344 446 317Q394 290 323 290H192V0ZM192 387H323Q379 387 412 420Q446 454 446 510Q446 567 412 600Q379 633 323 633H192Z"/><path id="mono-45" d="M84 0V730H313Q382 730 433 704Q484 677 512 629Q541 581 541 516Q541 443 504 390Q466 336 402 314L551 0H428L295 300H192V0ZM192 395H313Q367 395 399 428Q431 460 431 514Q431 570 399 602Q367 634 313 634H192Z"/><path id="mono-15" d="M94 0V730H523V634H200V427H488V332H200V96H523V0Z"/><path id="mono-46" d="M303 -10Q229 -10 176 14Q123 39 94 84Q65 130 65 193H172Q172 143 207 114Q242 86 304 86Q362 86 395 114Q428 142 428 191Q428 232 406 262Q383 292 341 303L249 330Q169 353 126 408Q82 464 82 541Q82 601 109 646Q136 691 186 716Q236 741 304 741Q404 741 464 687Q525 633 526 542H418Q418 590 388 618Q357 645 302 645Q249 645 219 620Q189 594 189 548Q189 507 212 477Q234 447 276 435L369 407Q449 385 492 329Q535 273 535 195Q535 134 506 88Q477 41 425 16Q373 -10 303 -10Z"/><path id="mono-47" d="M246 0V631H51V731H549V631H354V0Z"/><path id="sans-164" d="M338 670V0H158V1490H338V847H307Q358 1002 452 1067Q547 1132 674 1132Q787 1132 872 1086Q958 1039 1006 946Q1053 852 1053 710V0H872V695Q872 824 804 897Q737 970 620 970Q540 970 476 935Q412 900 375 833Q338 766 338 670Z"/><path id="sans-161" d="M611 -442Q487 -442 396 -410Q306 -379 246 -327Q186 -275 151 -214L297 -120Q321 -152 356 -191Q392 -230 452 -258Q513 -285 611 -285Q745 -285 832 -221Q918 -157 918 -19V205H901Q882 173 848 129Q813 85 748 52Q684 18 576 18Q442 18 335 82Q228 145 166 267Q104 389 104 564Q104 737 165 864Q226 992 334 1062Q441 1132 580 1132Q688 1132 752 1096Q817 1061 852 1015Q887 969 906 939H923V1118H1098V-29Q1098 -173 1033 -264Q968 -356 858 -399Q747 -442 611 -442ZM606 178Q708 178 778 224Q848 271 884 358Q920 446 920 568Q920 687 884 778Q849 868 779 920Q709 971 606 971Q500 971 429 916Q358 862 322 771Q287 680 287 568Q287 453 323 365Q359 277 430 228Q501 178 606 178Z"/><path id="sans-261" d="M635 -20Q489 -20 376 30Q263 80 196 169Q130 258 125 376H317Q323 305 366 254Q408 202 478 174Q547 147 632 147Q726 147 798 180Q871 212 913 271Q955 330 955 407Q955 488 914 550Q874 611 797 646Q720 681 609 681H488V846H609Q696 846 762 878Q829 909 866 966Q903 1023 903 1100Q903 1174 870 1229Q838 1284 778 1314Q718 1345 637 1345Q561 1345 494 1318Q428 1290 386 1239Q343 1188 340 1115H157Q161 1232 227 1321Q293 1410 402 1460Q510 1510 641 1510Q780 1510 880 1454Q981 1398 1035 1307Q1089 1216 1089 1110Q1089 984 1022 896Q956 808 842 774V762Q937 747 1004 698Q1072 649 1108 574Q1143 499 1143 405Q1143 283 1077 187Q1011 91 896 36Q781 -20 635 -20Z"/><path id="sans600-55" d="M150 0V1490H417V225H1075V0Z"/><path id="sans600-130" d="M450 -23Q344 -23 259 16Q174 54 125 129Q76 204 76 314Q76 409 112 471Q147 533 208 570Q268 607 344 626Q420 645 502 653Q599 664 660 672Q721 680 750 698Q778 716 778 754V759Q778 814 756 852Q734 891 690 912Q647 932 583 932Q518 932 470 912Q423 892 393 860Q363 828 349 791L108 840Q141 939 210 1004Q279 1068 374 1100Q470 1132 582 1132Q661 1132 742 1114Q822 1095 889 1051Q956 1007 997 933Q1038 859 1038 747V0H789V154H779Q754 107 710 66Q667 26 602 2Q538 -23 450 -23ZM517 170Q598 170 656 202Q715 234 748 286Q780 339 780 401V533Q767 523 736 514Q706 505 668 498Q631 491 594 486Q558 481 533 478Q475 470 428 452Q381 434 354 402Q328 369 328 317Q328 269 352 236Q377 204 420 187Q462 170 517 170Z"/><path id="sans600-190" d="M398 655V0H138V1118H384L388 842H367Q414 987 505 1060Q596 1132 733 1132Q848 1132 934 1083Q1020 1034 1068 940Q1115 846 1115 711V0H855V671Q855 783 797 847Q739 911 637 911Q568 911 514 881Q460 851 429 794Q398 736 398 655Z"/><path id="sans600-161" d="M620 -442Q486 -442 386 -408Q287 -374 224 -316Q160 -257 132 -183L352 -104Q370 -135 402 -168Q433 -201 486 -222Q538 -244 619 -244Q740 -244 813 -188Q886 -131 886 -11V200H864Q845 160 808 118Q771 75 708 46Q646 17 549 17Q421 17 316 78Q212 138 150 259Q89 380 89 562Q89 746 151 873Q213 1000 318 1066Q422 1132 551 1132Q650 1132 714 1099Q778 1066 816 1020Q854 973 874 933H888V1118H1143V-3Q1143 -152 1075 -250Q1007 -347 889 -394Q771 -442 620 -442ZM622 222Q707 222 766 262Q825 303 856 380Q887 457 887 564Q887 670 856 750Q826 829 767 874Q708 918 622 918Q534 918 474 872Q415 825 385 746Q355 666 355 564Q355 461 386 384Q416 307 476 264Q535 222 622 222Z"/><path id="sans600-220" d="M521 -14Q406 -14 320 35Q233 84 186 178Q138 273 138 407V1118H398V447Q398 335 456 271Q515 207 617 207Q686 207 740 237Q794 267 824 325Q855 383 855 463V1118H1116V0H869L866 276H886Q839 130 747 58Q655 -14 521 -14Z"/><path id="sans600-151" d="M632 -23Q463 -23 342 48Q220 119 154 248Q89 377 89 552Q89 725 154 855Q218 985 336 1058Q455 1132 615 1132Q717 1132 810 1099Q902 1066 974 997Q1045 928 1086 822Q1126 715 1126 568V486H212V663H997L875 611Q875 705 846 776Q817 848 760 888Q702 928 616 928Q530 928 470 888Q410 847 378 780Q347 712 347 629V507Q347 401 383 328Q419 255 484 218Q549 181 635 181Q692 181 738 198Q785 214 819 246Q853 279 870 326L1109 277Q1082 187 1017 120Q952 52 854 14Q757 -23 632 -23Z"/><path id="sans600-213" d="M561 -23Q432 -23 333 14Q234 51 170 122Q107 193 88 294L331 340Q354 257 412 216Q471 176 566 176Q662 176 718 214Q775 253 775 310Q775 358 738 390Q701 421 624 438L433 479Q275 513 197 591Q119 669 119 792Q119 896 176 972Q233 1048 334 1090Q436 1132 570 1132Q697 1132 788 1096Q880 1060 936 996Q993 931 1015 844L783 798Q764 857 714 898Q664 938 573 938Q490 938 434 902Q379 865 379 808Q379 759 416 727Q453 695 538 677L728 637Q887 603 964 528Q1041 453 1041 335Q1041 229 980 148Q919 68 810 22Q702 -23 561 -23Z"/><path id="sans500-23" d="M165 0V1490H1103V1294H393V850H1052V655H393V196H1109V0Z"/><path id="sans500-213" d="M549 -23Q428 -23 334 12Q239 47 178 116Q118 184 98 283L305 326Q328 239 391 197Q454 155 551 155Q657 155 720 200Q783 244 783 306Q783 360 744 395Q706 430 626 447L438 490Q282 525 206 602Q130 679 130 799Q130 899 186 974Q242 1049 339 1090Q436 1132 563 1132Q684 1132 770 1097Q856 1062 910 999Q963 936 986 853L789 810Q768 869 716 914Q664 958 565 958Q474 958 413 917Q352 876 352 813Q352 757 392 722Q433 688 525 667L705 627Q860 592 935 517Q1010 442 1010 325Q1010 223 952 144Q893 66 790 22Q686 -23 549 -23Z"/><path id="sans500-164" d="M368 662V0H148V1490H366V844H337Q386 994 479 1063Q572 1132 704 1132Q818 1132 904 1084Q989 1036 1036 942Q1084 849 1084 710V0H864V683Q864 804 801 872Q738 940 628 940Q554 940 495 908Q436 875 402 813Q368 751 368 662Z"/><path id="mono-10" d="M85 0V730H300Q404 730 463 680Q522 630 522 542Q522 492 500 456Q479 419 441 399Q403 379 352 379V389Q407 390 449 368Q491 347 515 305Q539 263 539 205Q539 143 512 96Q484 50 434 25Q383 0 314 0ZM190 93H305Q363 93 397 124Q431 155 431 210Q431 266 397 300Q363 334 305 334H190ZM190 424H299Q353 424 384 453Q415 482 415 531Q415 580 384 608Q353 637 300 637H190Z"/><path id="sans500-35" d="M791 -20Q589 -20 436 73Q284 166 198 338Q113 509 113 744Q113 982 200 1154Q286 1325 437 1418Q588 1510 781 1510Q901 1510 1006 1474Q1110 1439 1192 1374Q1275 1308 1328 1218Q1382 1127 1400 1019H1166Q1146 1084 1111 1136Q1076 1189 1028 1226Q979 1263 918 1282Q856 1302 783 1302Q657 1302 556 1238Q456 1174 398 1050Q339 925 339 745Q339 565 398 441Q456 317 558 252Q660 188 792 188Q912 188 1002 236Q1091 285 1140 374Q1190 464 1190 586L1249 576H825V764H1413V593Q1413 405 1332 268Q1252 130 1112 55Q972 -20 791 -20Z"/><path id="mono-124" d="M87 0V96H281V636L86 491V608L253 730H389V96H546V0Z"/><path id="sans500-95" d="M759 -23Q580 -23 446 46Q312 115 238 236Q165 356 165 512V1490H393V531Q393 430 438 352Q482 274 564 229Q646 184 759 184Q871 184 952 229Q1034 274 1078 352Q1122 430 1122 531V1490H1351V512Q1351 356 1278 236Q1204 115 1070 46Q937 -23 759 -23Z"/><path id="mono-59" d="M245 -10Q159 -10 110 34Q60 79 60 156Q60 234 112 278Q165 323 257 323H410V374Q410 419 382 444Q354 469 303 469Q258 469 228 450Q198 430 193 398H87Q96 472 156 516Q215 560 306 560Q404 560 461 510Q518 461 518 376V0H413V101H395L413 121Q413 61 367 26Q321 -10 245 -10ZM277 73Q335 73 372 102Q410 132 410 178V250H259Q217 250 192 227Q168 204 168 164Q168 122 197 98Q226 73 277 73Z"/><path id="mono-108" d="M360 0Q285 0 243 41Q201 82 201 155V452H49V550H201V705H309V550H524V452H309V155Q309 98 364 98H514V0Z"/><path id="mono-80" d="M81 0V98H274V452H106V550H379V98H556V0ZM316 645Q281 645 260 664Q239 682 239 713Q239 745 260 764Q281 782 316 782Q351 782 372 764Q393 745 393 713Q393 682 372 664Q351 645 316 645Z"/><path id="mono-114" d="M229 0 47 550H157L270 198Q281 167 290 136Q298 104 302 86Q307 104 316 136Q324 167 333 198L444 550H553L371 0Z"/><path id="mono-72" d="M300 -10Q233 -10 182 16Q132 43 105 91Q78 139 78 203V347Q78 412 105 460Q132 507 182 534Q233 560 300 560Q368 560 418 534Q468 507 495 460Q522 412 522 347V249H182V203Q182 142 212 110Q243 78 301 78Q348 78 377 94Q406 111 413 143H520Q508 73 448 32Q388 -10 300 -10ZM418 314V348Q418 408 388 441Q358 474 300 474Q243 474 212 441Q182 408 182 347V322L426 323Z"/><path id="mono-20" d="M88 0V731H529V631H193V413H503V313H195V0Z"/><path id="mono-90" d="M379 0Q328 0 290 20Q252 41 230 79Q209 117 209 167V632H29V730H317V167Q317 135 335 116Q353 98 384 98H554V0Z"/><path id="mono-109" d="M299 -10Q200 -10 141 48Q82 105 82 204V550H190V204Q190 147 219 116Q248 84 299 84Q351 84 380 116Q410 147 410 204V550H518V204Q518 105 458 48Q399 -10 299 -10Z"/><path id="mono-92" d="M84 0V550H191V445H217L191 420Q191 486 230 523Q269 560 338 560Q420 560 469 508Q518 455 518 366V0H410V354Q410 408 381 437Q352 466 302 466Q251 466 222 436Q192 405 192 347V0Z"/><path id="mono-13" d="M83 0V730H287Q359 730 412 702Q465 675 494 625Q524 575 524 507V224Q524 157 494 106Q465 55 412 28Q359 0 287 0ZM191 98H287Q347 98 382 132Q416 165 416 224V507Q416 565 382 598Q347 632 287 632H191Z"/><path id="mono-23" d="M98 0V96H245V634H98V730H502V634H355V96H502V0Z"/><path id="mono-30" d="M109 0V730H217V99H536V0Z"/><path id="mono-11" d="M304 -10Q236 -10 186 16Q135 41 108 90Q80 138 80 203V527Q80 593 108 641Q135 689 186 714Q236 740 304 740Q372 740 422 714Q472 688 500 640Q527 593 527 527H419Q419 584 389 614Q359 644 304 644Q249 644 218 614Q188 584 188 528V203Q188 147 218 116Q249 86 304 86Q359 86 389 116Q419 147 419 203H527Q527 138 500 90Q472 42 422 16Q372 -10 304 -10Z"/><path id="mono-29" d="M84 0V730H192V426H289L438 730H556L384 380L564 0H443L287 329H192V0Z"/>
  <clipPath id="frame"><rect width="960" height="380" rx="28"/></clipPath>
  <filter id="soft" x="-50%" y="-50%" width="200%" height="200%"><feGaussianBlur stdDeviation="55"/></filter>
  <linearGradient id="ink" gradientUnits="userSpaceOnUse" x1="231.2" y1="0" x2="441.8" y2="0">
    <stop offset="0" stop-color="#2b59ff"/><stop offset="0.55" stop-color="#7c5cff"/><stop offset="1" stop-color="#18b4e0"/>
  </linearGradient>
</defs>
<g clip-path="url(#frame)">
  <rect width="960" height="380" fill="#f5f7fc"/>
  <g filter="url(#soft)">
    <ellipse class="blob b1" cx="760" cy="40" rx="250" ry="190" fill="#2b59ff" opacity="0.3"/>
    <ellipse class="blob b2" cx="930" cy="280" rx="190" ry="160" fill="#7c5cff" opacity="0.24"/>
    <ellipse class="blob b3" cx="560" cy="380" rx="200" ry="140" fill="#18b4e0" opacity="0.2"/>
    <ellipse class="blob b2" cx="40" cy="0" rx="220" ry="160" fill="#2b59ff" opacity="0.1"/>
  </g>
  <g class="r" style="animation-delay:0ms"><svg x="48" y="40" width="126.8" height="30" viewBox="30 30 1835 434"><path fill-rule="evenodd" fill="#2b59ff" d="M 405 41 C 360.4 41.7,357.2 41.8,353.2 43.7 L 349 45.7 357.7 51 C 383.5 66.8,406.8 87.6,423.4 109.7 L 430.3 118.9 510.4 119.2 L 590.5 119.5 597.5 122.4 C 630.6 136.3,631.6 183.6,599.1 199.9 C 590 204.6,584.8 204.9,524.6 205.1 L 468.8 205.2 469.6 219.4 C 470.1 227.1,470.5 243.7,470.5 256.2 L 470.5 279 538.5 279 C 580.5 279,609 279.4,613 280.1 C 626.7 282.2,638.5 290.3,644.3 301.5 C 647.4 307.3,647.5 308,647.5 319.5 C 647.5 331.1,647.4 331.7,644.2 338.3 C 638.3 350.2,626.1 360,613.1 363 C 608.7 364,476.8 364.9,453.8 364.1 L 451.1 364 450.7 293.2 C 450.3 215.8,450.4 217.7,443.9 194.7 C 411.5 79.8,291.1 15.1,181 53.5 C 77.7 89.6,19 199.9,48 303.2 C 68.9 377.4,129.3 433.5,205.5 449.7 C 225.1 453.8,264 453.8,283.5 449.7 C 304.3 445.3,330.2 435.5,344.9 426.6 L 351 422.9 351 364.2 C 351 332,350.6 306,350.2 306.6 C 349.7 307.1,346.2 311.8,342.3 317 C 294.8 380.8,207.6 385,156.1 325.9 C 100.4 262,126.2 164.7,206.9 134.3 C 267.4 111.5,338.4 147,359.4 210.5 C 365.7 229.8,365.4 222.1,365.7 341.3 L 366.1 450.1 490.8 449.8 L 615.5 449.4 626.3 447.2 C 653.8 441.4,680 427.3,699.2 407.8 C 751.3 355,748 271.3,692 226.7 C 687.9 223.4,684.5 220.4,684.5 220.1 C 684.5 219.8,686.2 216.5,688.3 212.8 C 705.5 182.5,706.7 139.9,691.2 107.7 C 675.4 74.8,643.5 51,604.5 42.9 C 593.7 40.7,592.2 40.6,523 40.5 C 484.2 40.4,431.1 40.6,405 41"/><path fill-rule="evenodd" fill="#0b1630" d="M 996.8 59.7 C 995.1 60.1,995 65.3,995 150.6 L 995 241 1011.8 240.8 L 1028.5 240.5 1028.5 150 L 1028.5 59.5 1013.5 59.4 C 1005.2 59.3,997.7 59.4,996.8 59.7 M 1172.5 60.2 C 1172.2 60.9,1172.1 101.8,1172.3 151 L 1172.5 240.5 1187 240.8 C 1208 241.2,1206 243.1,1206 223.2 L 1206 206.5 1211.4 200.5 C 1214.4 197.2,1217 194.7,1217.2 195 C 1217.5 195.3,1220.1 198.7,1223.1 202.6 C 1226.1 206.4,1234.1 216.7,1241 225.3 L 1253.5 241.1 1273.7 241 C 1284.9 240.9,1294 240.5,1294 240.1 C 1294 239,1289 232.1,1282 223.5 C 1251.9 186.4,1240.8 171.7,1241.7 169.9 C 1242.1 168.9,1248 162,1254.7 154.7 C 1261.4 147.3,1269.5 138.2,1272.6 134.4 C 1275.8 130.6,1281.5 124.1,1285.2 120 C 1291 113.7,1291.8 112.4,1290.3 111.8 C 1289.3 111.5,1279.7 111.1,1269 111.1 L 1249.5 111 1242.5 118.8 C 1238.6 123,1229.2 133.6,1221.6 142.2 C 1213.9 150.9,1207.3 158,1206.8 158 C 1206.4 158,1206 135.7,1206 108.5 L 1206 59 1189.5 59 C 1177.2 59,1172.8 59.3,1172.5 60.2 M 1732.8 59.6 C 1732.3 60,1732 74.2,1732 91.2 C 1732 108.1,1731.6 122,1731.2 122 C 1730.7 122,1729.5 121,1728.4 119.8 C 1725.2 116.2,1712.7 111,1704.6 110 C 1651.8 103.3,1617.6 158.7,1642.8 210 C 1647.8 220.2,1659.2 231.6,1669.3 236.4 C 1688.6 245.6,1710.3 244.7,1726.8 234 C 1730.3 231.8,1733.3 230,1733.5 230 C 1733.7 230,1734 232.4,1734.2 235.2 L 1734.5 240.5 1750.1 240.8 C 1765.7 241,1765.8 241,1766.3 238.8 C 1767.1 235.1,1766.4 61.1,1765.6 60.3 C 1764.6 59.3,1733.7 58.6,1732.8 59.6 M 867.5 61.4 C 806.5 73.3,774.2 138,801.9 192.8 C 819.7 227.9,858.3 247.5,899.5 242.1 C 942.2 236.5,975.4 203.7,981 161.5 C 986.9 116.4,957.7 75.3,910.5 62.4 C 902.3 60.2,876.9 59.6,867.5 61.4 M 874.5 95.4 C 856.6 99.5,841.9 111.4,834.1 128 C 815.6 167.6,849.8 213.1,893.5 207.1 C 924.5 202.7,947.3 172.9,943 142.3 C 938.5 110.8,905.6 88.3,874.5 95.4 M 1092.4 110 C 1059.4 114.4,1037.8 140,1037.6 175 C 1037.5 188.8,1038.7 194.5,1044.7 206.9 C 1059.9 238.7,1099.6 252.1,1131.9 236.3 C 1140 232.4,1157.6 216.4,1156.8 213.8 C 1156.5 213.1,1150.8 208.6,1144.1 203.8 L 1131.8 195 1128.5 199.1 C 1116.7 214,1093.6 215.6,1080.5 202.5 C 1076.6 198.6,1072 189.7,1073.3 188.4 C 1073.6 188.1,1091.9 187.9,1114 187.9 C 1136.1 188,1156.4 187.7,1159.2 187.4 L 1164.3 186.7 1163.7 173.6 C 1162.7 151.5,1158.4 140.4,1146.2 127.8 C 1132.6 113.8,1113 107.3,1092.4 110 M 1324.5 111.4 C 1301.9 116.9,1288.6 135,1291.9 155.4 C 1294.8 173,1306.8 183,1333 189.5 C 1349.8 193.6,1354.4 196,1355.5 200.9 C 1357.2 208.9,1350.2 213.4,1337 212.8 C 1327.4 212.4,1321.1 209.7,1311.8 201.9 L 1307.1 198 1297.3 208.1 C 1291.9 213.6,1287.4 218.8,1287.2 219.5 C 1286.7 221.4,1300.1 232.3,1307.4 235.9 C 1336.3 250.1,1375.9 241.9,1386.5 219.3 C 1393.9 203.7,1390.9 186.3,1379 175.8 C 1372.9 170.4,1360.5 164.6,1348.5 161.5 C 1333.1 157.5,1329.2 156.1,1327 153.3 C 1324.1 149.5,1324.4 145.7,1328 142.6 C 1335.9 136,1353.6 138.8,1365.4 148.5 L 1369.8 152 1376.7 144.3 C 1380.5 140,1384.9 134.9,1386.4 132.9 L 1389.1 129.2 1384.3 125.1 C 1377.9 119.6,1365.8 113.4,1357.9 111.5 C 1350.2 109.7,1331.6 109.6,1324.5 111.4 M 1431.6 111.6 C 1417.5 115,1397.2 128,1399.6 132.2 C 1401.8 136.1,1418.5 152.2,1419.6 151.4 C 1431.7 141.9,1436.3 140.1,1447.5 140 C 1451.9 140,1457.2 140.5,1459.2 141 C 1466.2 143,1472 149.9,1472 156.4 L 1472 158.8 1450.2 159.2 C 1432.8 159.6,1427.5 160.1,1423.6 161.5 C 1404 168.7,1394 182.2,1394 201.5 C 1394 218.6,1406.3 235.2,1423 240.7 C 1435.8 244.9,1455.6 242.3,1467 234.9 L 1473 231 1473.1 234.5 C 1473.2 236.4,1473.3 238.6,1473.4 239.2 C 1473.5 240.2,1477.4 240.5,1489.5 240.5 L 1505.5 240.5 1505.8 198 C 1506.1 151.3,1505.8 147.9,1500.6 136.5 C 1495.1 124.6,1483.1 115.6,1467.5 111.5 C 1460 109.6,1439.8 109.6,1431.6 111.6 M 1567 110.9 C 1561.9 112.5,1554.2 117,1551.2 120 C 1547.1 124,1547 123.9,1547 117 L 1547 111 1531 111 L 1515 111 1514.9 131.8 C 1514.7 164.7,1514.7 172.5,1514.8 207.8 L 1515 241 1531.8 240.8 L 1548.5 240.5 1549 200.5 C 1549.4 170.5,1549.8 159.8,1550.8 157.5 C 1558.9 139.2,1582.3 136,1591.4 152 L 1594.5 157.5 1594.8 199.2 L 1595.1 241 1612.1 241 L 1629 241 1629 196.8 C 1629 148.5,1628.7 145.4,1623 134 C 1619.1 126.3,1608 115.9,1600.3 112.9 C 1594.1 110.5,1572.4 109.1,1567 110.9 M 1837 111.1 C 1830.1 112.4,1820.5 117.6,1816.7 122 C 1814.8 124.2,1813 126,1812.7 126 C 1812.3 126,1812 122.6,1812 118.5 L 1812 111 1795 111 L 1778 111 1778.2 175.8 L 1778.5 240.5 1795.5 240.5 L 1812.5 240.5 1813 205 C 1813.6 165.5,1813.7 164.9,1820.8 155.5 C 1826.6 147.7,1834.7 144,1846.2 144 L 1855 144 1855 127 L 1855 110 1848.2 110.1 C 1844.5 110.2,1839.5 110.6,1837 111.1 M 1094.1 140 C 1085.4 141.8,1078 148.1,1074.4 156.5 C 1073.7 158.4,1073 160.2,1073 160.5 C 1073 160.8,1085.4 161,1100.5 161 C 1131.3 161,1129.9 161.4,1126.6 153.7 C 1122.3 143.6,1107.4 137.3,1094.1 140 M 1689.1 143.7 C 1683.2 145.8,1675.6 153.5,1672.2 160.8 C 1668.2 169.4,1668.3 183,1672.4 191.5 C 1679.9 206.6,1693.1 213.4,1707.8 209.6 C 1722.8 205.8,1731 195.1,1731.8 178.5 C 1732.3 167,1731.1 162.6,1725.2 154.8 C 1716.6 143.3,1702.4 139,1689.1 143.7 M 1449.5 186.9 C 1435.1 187.6,1432.5 188.5,1429 194.3 C 1420.8 207.7,1442 219.5,1458.7 210.7 C 1466.3 206.7,1471.5 199.1,1472.2 191 L 1472.5 186.5 1467.5 186.4 C 1464.8 186.4,1456.6 186.6,1449.5 186.9 M 812.5 267.2 C 812.2 267.9,812.1 307.6,812.2 355.5 L 812.5 442.5 859.5 442.5 C 912.6 442.5,914.9 442.3,930 434.9 C 964.7 418.1,968 370.9,935.8 351.1 C 931.1 348.3,931 348.9,937.2 342.1 C 945.7 332.8,947.5 327.8,947.5 313.5 C 947.5 302.1,947.3 301.2,944.4 295 C 936.8 279.2,922.7 270,901.4 267 C 890 265.5,813.1 265.6,812.5 267.2 M 1264.5 275.6 C 1264.1 280.9,1264.1 292.5,1264.5 301.5 C 1264.9 310.4,1264.9 319.1,1264.6 320.8 L 1263.9 323.8 1256.7 320 C 1227.7 304.3,1190.7 315.3,1174.5 344.3 C 1157 375.9,1167.5 418.8,1197.1 436.3 C 1216.4 447.7,1243.1 447.6,1259.2 436.1 C 1265.6 431.5,1266 431.6,1266 438.2 L 1266 443 1282.5 443 L 1299 443 1298.8 354.8 L 1298.5 266.5 1281.9 266.2 L 1265.2 266 1264.5 275.6 M 847.5 304.2 C 847.2 307.6,847 315.9,847.2 322.5 L 847.5 334.5 869.5 334.8 C 895.7 335.2,900.4 334.5,905.9 329.2 C 912.2 323.2,913.7 313.1,909.2 307 C 908.1 305.6,905.1 303.1,902.5 301.5 L 897.7 298.5 872.9 298.2 L 848.2 297.8 847.5 304.2 M 1347.5 314.5 C 1334.9 317.2,1325.8 321.8,1317.2 329.7 L 1312 334.5 1322.1 345.3 L 1332.2 356.1 1336.6 352.5 C 1351.5 340.2,1375.1 339,1384.3 350 C 1387 353.1,1389.3 359.6,1388.4 361.2 C 1388.1 361.6,1379.5 362,1369.2 362 C 1333.3 362.1,1318.9 368.1,1310.2 386.7 C 1306.5 394.7,1306.3 410.7,1309.8 418.5 C 1315.1 430,1325.4 438.9,1337.9 442.7 C 1352 447,1373.6 444.2,1385 436.5 C 1391.4 432.2,1391 432,1391 438 L 1391 443 1407.5 443 L 1424 443 1424.2 427.8 C 1424.8 366.1,1424.5 357,1421.6 348.6 C 1415.1 329.7,1404.5 320.1,1384.3 314.9 C 1375.3 312.6,1356.9 312.4,1347.5 314.5 M 1105.1 314.8 L 1094 315.1 1094 379.1 L 1094 443 1110.8 442.8 L 1127.5 442.5 1128 406.5 L 1128.5 370.5 1131.1 365 C 1136.8 352.7,1147.5 347,1164.9 347 L 1169.3 347 1168.7 337.2 C 1168.3 331.9,1168 324.4,1168 320.6 L 1168 313.8 1158.2 314.2 C 1147 314.7,1139.4 317.8,1131.4 325.2 L 1127 329.3 1127 322.2 L 1127 315.2 1121.6 314.8 C 1118.6 314.7,1111.2 314.6,1105.1 314.8 M 966 357.2 C 966 404.2,966.3 406.7,972.5 418.9 C 985.3 444.4,1018.4 452.7,1042.7 436.4 L 1048.9 432.3 1049.5 436 C 1049.8 438,1050 440.3,1049.8 441.1 C 1049.6 442.3,1052.3 442.5,1065.8 442.8 L 1082 443.1 1082 379 L 1082 315 1065 315 L 1048 315 1048 350.8 C 1048 389.9,1047.4 394.9,1042.4 402.1 C 1033.9 414.5,1015.5 415.5,1005.8 404.1 C 1000.3 397.6,1000 395.2,1000 353.1 L 1000 315 983 315 L 966 315 966 357.2 M 1223.8 346.4 C 1209 351.7,1201.7 362,1201.6 378 C 1201.3 415,1246.6 426.8,1261.6 393.6 C 1273.4 367.6,1249.1 337.4,1223.8 346.4 M 847.4 369.3 C 847.2 370,847.1 379.3,847.2 390 L 847.5 409.5 875.5 409.5 C 906.6 409.5,908.6 409.2,915.1 403.3 C 926.7 392.8,922.3 374.1,907 369.6 C 899.9 367.5,848.2 367.2,847.4 369.3 M 1352 390.5 C 1345.9 392.4,1342.9 395.8,1342.3 401.3 C 1341.2 410.3,1346.5 415,1358.6 415.8 C 1374.4 416.8,1386.2 407.8,1388.6 393.1 L 1389.3 389 1372.9 389.1 C 1361.8 389.1,1355 389.6,1352 390.5"/></svg></g>
  <g class="r" style="animation-delay:120ms">
    <rect x="48" y="92" width="268.3" height="28" rx="14" fill="#ffffff" stroke="#dae1ef"/>
    <circle class="halo" cx="65" cy="106" r="5" fill="#16a34a"/>
    <circle cx="65" cy="106" r="4" fill="#16a34a"/>
    <g fill="#0b1630"><use href="#sans500-34" transform="matrix(0.00610 0 0 -0.00610 82.00 112.50)"/><use href="#sans500-220" transform="matrix(0.00610 0 0 -0.00610 88.95 112.50)"/><use href="#sans500-183" transform="matrix(0.00610 0 0 -0.00610 96.47 112.50)"/><use href="#sans500-183" transform="matrix(0.00610 0 0 -0.00610 99.61 112.50)"/><use href="#sans500-90" transform="matrix(0.00610 0 0 -0.00610 106.10 112.50)"/><use href="#sans500-217" transform="matrix(0.00610 0 0 -0.00610 114.17 112.50)"/><use href="#sans500-130" transform="matrix(0.00610 0 0 -0.00610 118.49 112.50)"/><use href="#sans500-146" transform="matrix(0.00610 0 0 -0.00610 125.59 112.50)"/><use href="#sans500-180" transform="matrix(0.00610 0 0 -0.00610 132.80 112.50)"/><use href="#sans500-21" transform="matrix(0.00610 0 0 -0.00610 143.12 112.50)"/><use href="#sans500-151" transform="matrix(0.00610 0 0 -0.00610 152.14 112.50)"/><use href="#sans500-230" transform="matrix(0.00610 0 0 -0.00610 159.25 112.50)"/><use href="#sans500-151" transform="matrix(0.00610 0 0 -0.00610 166.19 112.50)"/><use href="#sans500-183" transform="matrix(0.00610 0 0 -0.00610 173.53 112.50)"/><use href="#sans500-195" transform="matrix(0.00610 0 0 -0.00610 176.68 112.50)"/><use href="#sans500-207" transform="matrix(0.00610 0 0 -0.00610 184.23 112.50)"/><use href="#sans500-151" transform="matrix(0.00610 0 0 -0.00610 191.96 112.50)"/><use href="#sans500-210" transform="matrix(0.00610 0 0 -0.00610 199.30 112.50)"/><use href="#sans500-130" transform="matrix(0.00610 0 0 -0.00610 207.47 112.50)"/><use href="#sans500-217" transform="matrix(0.00610 0 0 -0.00610 214.57 112.50)"/><use href="#sans500-58" transform="matrix(0.00610 0 0 -0.00610 222.16 112.50)"/><use href="#sans500-130" transform="matrix(0.00610 0 0 -0.00610 233.56 112.50)"/><use href="#sans500-161" transform="matrix(0.00610 0 0 -0.00610 240.66 112.50)"/><use href="#sans500-190" transform="matrix(0.00610 0 0 -0.00610 248.41 112.50)"/><use href="#sans500-151" transform="matrix(0.00610 0 0 -0.00610 255.93 112.50)"/><use href="#sans500-217" transform="matrix(0.00610 0 0 -0.00610 263.27 112.50)"/><use href="#sans500-167" transform="matrix(0.00610 0 0 -0.00610 267.52 112.50)"/><use href="#sans500-146" transform="matrix(0.00610 0 0 -0.00610 270.67 112.50)"/><use href="#sans500-66" transform="matrix(0.00610 0 0 -0.00610 277.89 112.50)"/><use href="#sans500-190" transform="matrix(0.00610 0 0 -0.00610 287.47 112.50)"/><use href="#sans500-151" transform="matrix(0.00610 0 0 -0.00610 294.99 112.50)"/></g>
  </g><g class="r" style="animation-delay:220ms"><g fill="#0b1630"><use href="#display-20" transform="matrix(0.04200 0 0 -0.04200 48.00 190.00)"/><use href="#display-109" transform="matrix(0.04200 0 0 -0.04200 71.06 190.00)"/><use href="#display-90" transform="matrix(0.04200 0 0 -0.04200 95.71 190.00)"/><use href="#display-90" transform="matrix(0.04200 0 0 -0.04200 105.75 190.00)"/><use href="#display-192" transform="matrix(0.04200 0 0 -0.04200 115.79 190.00)"/><use href="#display-106" transform="matrix(0.04200 0 0 -0.04200 129.02 190.00)"/><use href="#display-108" transform="matrix(0.04200 0 0 -0.04200 150.40 190.00)"/><use href="#display-59" transform="matrix(0.04200 0 0 -0.04200 165.60 190.00)"/><use href="#display-68" transform="matrix(0.04200 0 0 -0.04200 188.74 190.00)"/><use href="#display-89" transform="matrix(0.04200 0 0 -0.04200 211.00 190.00)"/><use href="#display-70" transform="matrix(0.04200 0 0 -0.04200 242.54 190.00)"/><use href="#display-72" transform="matrix(0.04200 0 0 -0.04200 267.87 190.00)"/><use href="#display-114" transform="matrix(0.04200 0 0 -0.04200 290.42 190.00)"/><use href="#display-72" transform="matrix(0.04200 0 0 -0.04200 312.52 190.00)"/><use href="#display-90" transform="matrix(0.04200 0 0 -0.04200 335.45 190.00)"/><use href="#display-94" transform="matrix(0.04200 0 0 -0.04200 345.49 190.00)"/><use href="#display-102" transform="matrix(0.04200 0 0 -0.04200 369.59 190.00)"/><use href="#display-72" transform="matrix(0.04200 0 0 -0.04200 395.00 190.00)"/><use href="#display-105" transform="matrix(0.04200 0 0 -0.04200 417.94 190.00)"/></g></g><g class="r" style="animation-delay:320ms"><g fill="#0b1630"><use href="#display-106" transform="matrix(0.04200 0 0 -0.04200 48.00 234.00)"/><use href="#display-79" transform="matrix(0.04200 0 0 -0.04200 69.46 234.00)"/><use href="#display-80" transform="matrix(0.04200 0 0 -0.04200 94.49 234.00)"/><use href="#display-102" transform="matrix(0.04200 0 0 -0.04200 104.66 234.00)"/><use href="#display-102" transform="matrix(0.04200 0 0 -0.04200 129.98 234.00)"/><use href="#display-80" transform="matrix(0.04200 0 0 -0.04200 155.31 234.00)"/><use href="#display-92" transform="matrix(0.04200 0 0 -0.04200 165.47 234.00)"/><use href="#display-78" transform="matrix(0.04200 0 0 -0.04200 190.51 234.00)"/><use href="#display-46" transform="matrix(0.04200 0 0 -0.04200 222.51 234.00)"/><use href="#display-59" transform="matrix(0.04200 0 0 -0.04200 248.42 234.00)"/><use href="#display-59" transform="matrix(0.04200 0 0 -0.04200 271.48 234.00)"/><use href="#display-46" transform="matrix(0.04200 0 0 -0.04200 294.46 234.00)"/></g></g><g class="r" style="animation-delay:420ms"><g fill="#0b1630"><use href="#display-102" transform="matrix(0.04200 0 0 -0.04200 48.00 278.00)"/><use href="#display-105" transform="matrix(0.04200 0 0 -0.04200 73.33 278.00)"/><use href="#display-94" transform="matrix(0.04200 0 0 -0.04200 90.00 278.00)"/><use href="#display-70" transform="matrix(0.04200 0 0 -0.04200 114.11 278.00)"/><use href="#display-109" transform="matrix(0.04200 0 0 -0.04200 139.43 278.00)"/><use href="#display-68" transform="matrix(0.04200 0 0 -0.04200 164.09 278.00)"/><use href="#display-108" transform="matrix(0.04200 0 0 -0.04200 186.35 278.00)"/><use href="#display-106" transform="matrix(0.04200 0 0 -0.04200 201.55 278.00)"/></g><path fill="url(#ink)" d="M244.2 278.6Q241.5 278.6 239.3 277.8Q237.2 277.1 235.7 275.6Q234.2 274.2 233.5 272.1Q232.7 270.1 232.7 267.4Q232.7 264.8 233.5 262.6Q234.2 260.4 235.6 258.7Q237 257.1 239.1 256.2Q241.2 255.4 243.8 255.4Q246.3 255.4 248.3 256.2Q250.2 257 251.5 258.6Q252.8 260.3 253.5 262.6Q254.1 265 253.9 268.1L236.7 268.3V264.9L250.4 264.8L248.3 266.5Q248.6 264.2 248 262.8Q247.4 261.4 246.3 260.7Q245.2 260 243.8 260Q242.2 260 241 260.9Q239.8 261.7 239.1 263.3Q238.5 264.9 238.5 267.3Q238.5 270.8 240 272.5Q241.6 274.2 244.1 274.2Q245.4 274.2 246.2 273.9Q247 273.5 247.5 273Q248 272.5 248.4 271.9Q248.7 271.3 248.9 270.6L254.1 271.8Q253.8 273.3 253 274.6Q252.3 275.8 251.1 276.7Q249.9 277.6 248.2 278.1Q246.5 278.6 244.2 278.6ZM256.9 278V264.6V255.9H261.8V262.5H262.6Q263.2 260.1 264.2 258.5Q265.2 256.9 266.7 256.1Q268.2 255.4 270.3 255.4Q274.2 255.4 276.2 258.1Q278.2 260.7 278.2 266.5V278H272.1V267.2Q272.1 263.6 271.1 262Q270 260.4 268 260.4Q266.3 260.4 265.2 261.4Q264 262.5 263.5 264.2Q262.9 265.9 262.9 268V278ZM290 278.6Q287.1 278.6 285.1 277.2Q283.1 275.7 281.9 273.1Q280.8 270.5 280.8 267Q280.8 263.6 281.8 261Q282.8 258.4 284.8 256.9Q286.8 255.4 289.7 255.4Q291.8 255.4 293.3 256.2Q294.8 257 295.7 258.6Q296.6 260.1 297.2 262.3H298.2Q297.9 260.9 297.7 259.6Q297.4 258.3 297.3 257.1Q297.1 256 297.1 255.1V248H303.2V267.2V278H298.2V271.6H297.3Q296.9 274 295.9 275.5Q294.9 277.1 293.4 277.8Q291.9 278.6 290 278.6ZM292 273.6Q293.4 273.6 294.3 273Q295.3 272.5 295.9 271.5Q296.6 270.5 296.9 269.4Q297.1 268.3 297.1 267.4V266.6Q297.1 265.8 296.9 264.9Q296.7 264.1 296.3 263.2Q295.9 262.4 295.2 261.7Q294.6 261.1 293.7 260.7Q292.9 260.3 291.9 260.3Q290.4 260.3 289.3 261.1Q288.2 262 287.7 263.4Q287.1 264.9 287.1 267Q287.1 269 287.7 270.5Q288.3 272 289.4 272.8Q290.5 273.6 292 273.6ZM323.7 278.5Q320 278.5 318.2 276.6Q316.5 274.6 316.5 270.3V260.7H313.3L313.4 256H315.6Q316.9 255.9 317.5 255.6Q318.2 255.2 318.4 254.2L318.9 251H322.3V255.9H327.8V260.9H322.3V270.1Q322.3 271.6 323 272.2Q323.7 272.9 325.2 272.9Q326 272.9 326.7 272.8Q327.5 272.6 328 272.2V277.8Q326.7 278.3 325.6 278.4Q324.5 278.5 323.7 278.5ZM340.5 278.6Q337.3 278.6 334.7 277.3Q332.2 275.9 330.7 273.3Q329.3 270.7 329.3 266.9Q329.3 263 330.8 260.5Q332.2 257.9 334.8 256.6Q337.3 255.4 340.5 255.4Q343.8 255.4 346.3 256.7Q348.9 258 350.3 260.5Q351.8 263.1 351.8 267Q351.8 270.9 350.3 273.5Q348.8 276.1 346.3 277.3Q343.7 278.6 340.5 278.6ZM340.7 274.1Q342.4 274.1 343.5 273.3Q344.6 272.6 345.2 271Q345.7 269.5 345.7 267.3Q345.7 265 345.1 263.4Q344.5 261.8 343.3 260.9Q342.2 260 340.4 260Q338.8 260 337.7 260.8Q336.5 261.5 336 263Q335.4 264.6 335.4 266.8Q335.4 270.4 336.8 272.2Q338.2 274.1 340.7 274.1ZM373.1 278.6Q370.4 278.6 368.3 277.8Q366.2 277.1 364.7 275.6Q363.2 274.2 362.4 272.1Q361.7 270.1 361.7 267.4Q361.7 264.8 362.4 262.6Q363.2 260.4 364.6 258.7Q366 257.1 368 256.2Q370.1 255.4 372.7 255.4Q375.3 255.4 377.2 256.2Q379.2 257 380.5 258.6Q381.8 260.3 382.4 262.6Q383 265 382.9 268.1L365.6 268.3V264.9L379.4 264.8L377.2 266.5Q377.5 264.2 376.9 262.8Q376.4 261.4 375.2 260.7Q374.1 260 372.7 260Q371.1 260 370 260.9Q368.8 261.7 368.1 263.3Q367.4 264.9 367.4 267.3Q367.4 270.8 369 272.5Q370.5 274.2 373.1 274.2Q374.3 274.2 375.1 273.9Q375.9 273.5 376.5 273Q377 272.5 377.3 271.9Q377.6 271.3 377.8 270.6L383 271.8Q382.7 273.3 382 274.6Q381.2 275.8 380 276.7Q378.8 277.6 377.1 278.1Q375.4 278.6 373.1 278.6ZM385.8 278V264.6V255.9H390.8V262.5H391.6Q392.1 260.1 393.1 258.5Q394.1 256.9 395.7 256.1Q397.2 255.4 399.3 255.4Q403.1 255.4 405.1 258.1Q407.1 260.7 407.1 266.5V278H401.1V267.2Q401.1 263.6 400 262Q399 260.4 397 260.4Q395.3 260.4 394.1 261.4Q393 262.5 392.4 264.2Q391.9 265.9 391.9 268V278ZM418.9 278.6Q416.1 278.6 414.1 277.2Q412 275.7 410.9 273.1Q409.7 270.5 409.7 267Q409.7 263.6 410.8 261Q411.8 258.4 413.7 256.9Q415.7 255.4 418.6 255.4Q420.8 255.4 422.2 256.2Q423.7 257 424.6 258.6Q425.6 260.1 426.1 262.3H427.1Q426.8 260.9 426.6 259.6Q426.4 258.3 426.2 257.1Q426.1 256 426.1 255.1V248H432.1V267.2V278H427.1V271.6H426.3Q425.8 274 424.8 275.5Q423.9 277.1 422.4 277.8Q420.9 278.6 418.9 278.6ZM420.9 273.6Q422.3 273.6 423.3 273Q424.2 272.5 424.9 271.5Q425.5 270.5 425.8 269.4Q426.1 268.3 426.1 267.4V266.6Q426.1 265.8 425.9 264.9Q425.7 264.1 425.2 263.2Q424.8 262.4 424.2 261.7Q423.5 261.1 422.7 260.7Q421.8 260.3 420.8 260.3Q419.3 260.3 418.3 261.1Q417.2 262 416.6 263.4Q416.1 264.9 416.1 267Q416.1 269 416.7 270.5Q417.2 272 418.3 272.8Q419.4 273.6 420.9 273.6ZM438.3 278.5Q436.3 278.5 435.4 277.7Q434.4 276.9 434.4 275.1Q434.4 273.3 435.4 272.5Q436.3 271.6 438.3 271.6Q440.3 271.6 441.3 272.5Q442.3 273.3 442.3 275.1Q442.3 278.5 438.3 278.5Z"/></g><g class="r" style="animation-delay:560ms"><g fill="#55627e"><use href="#sans-61" transform="matrix(0.00708 0 0 -0.00708 48.00 318.00)"/><use href="#sans-151" transform="matrix(0.00708 0 0 -0.00708 58.92 318.00)"/><use href="#sans-238" transform="matrix(0.00708 0 0 -0.00708 67.05 318.00)"/><use href="#sans-217" transform="matrix(0.00708 0 0 -0.00708 75.25 318.00)"/><use href="#sans-363" transform="matrix(0.00708 0 0 -0.00708 79.99 318.00)"/><use href="#sans-179" transform="matrix(0.00708 0 0 -0.00708 84.17 318.00)"/><use href="#sans-213" transform="matrix(0.00708 0 0 -0.00708 87.68 318.00)"/><use href="#sans-368" transform="matrix(0.00708 0 0 -0.00708 99.42 318.00)"/><use href="#sans-87" transform="matrix(0.00708 0 0 -0.00708 107.67 318.00)"/><use href="#sans-151" transform="matrix(0.00708 0 0 -0.00708 116.79 318.00)"/><use href="#sans-130" transform="matrix(0.00708 0 0 -0.00708 125.39 318.00)"/><use href="#sans-146" transform="matrix(0.00708 0 0 -0.00708 133.53 318.00)"/><use href="#sans-217" transform="matrix(0.00708 0 0 -0.00708 141.81 318.00)"/><use href="#sans-368" transform="matrix(0.00708 0 0 -0.00708 150.63 318.00)"/><use href="#sans-93" transform="matrix(0.00708 0 0 -0.00708 158.89 318.00)"/><use href="#sans-240" transform="matrix(0.00708 0 0 -0.00708 167.34 318.00)"/><use href="#sans-207" transform="matrix(0.00708 0 0 -0.00708 175.49 318.00)"/><use href="#sans-151" transform="matrix(0.00708 0 0 -0.00708 184.37 318.00)"/><use href="#sans-90" transform="matrix(0.00708 0 0 -0.00708 192.82 318.00)"/><use href="#sans-146" transform="matrix(0.00708 0 0 -0.00708 202.13 318.00)"/><use href="#sans-210" transform="matrix(0.00708 0 0 -0.00708 210.41 318.00)"/><use href="#sans-167" transform="matrix(0.00708 0 0 -0.00708 216.01 318.00)"/><use href="#sans-207" transform="matrix(0.00708 0 0 -0.00708 219.52 318.00)"/><use href="#sans-217" transform="matrix(0.00708 0 0 -0.00708 228.40 318.00)"/><use href="#sans-368" transform="matrix(0.00708 0 0 -0.00708 237.22 318.00)"/><use href="#sans-61" transform="matrix(0.00708 0 0 -0.00708 245.48 318.00)"/><use href="#sans-195" transform="matrix(0.00708 0 0 -0.00708 256.40 318.00)"/><use href="#sans-149" transform="matrix(0.00708 0 0 -0.00708 265.10 318.00)"/><use href="#sans-151" transform="matrix(0.00708 0 0 -0.00708 273.97 318.00)"/><use href="#sans-363" transform="matrix(0.00708 0 0 -0.00708 282.43 318.00)"/><use href="#sans-179" transform="matrix(0.00708 0 0 -0.00708 286.61 318.00)"/><use href="#sans-213" transform="matrix(0.00708 0 0 -0.00708 290.12 318.00)"/></g><g fill="#55627e"><use href="#sans-21" transform="matrix(0.00708 0 0 -0.00708 48.00 340.00)"/><use href="#sans-195" transform="matrix(0.00708 0 0 -0.00708 58.46 340.00)"/><use href="#sans-210" transform="matrix(0.00708 0 0 -0.00708 67.16 340.00)"/><use href="#sans-217" transform="matrix(0.00708 0 0 -0.00708 72.84 340.00)"/><use href="#sans-187" transform="matrix(0.00708 0 0 -0.00708 77.59 340.00)"/><use href="#sans-220" transform="matrix(0.00708 0 0 -0.00708 90.29 340.00)"/><use href="#sans-190" transform="matrix(0.00708 0 0 -0.00708 98.86 340.00)"/><use href="#sans-149" transform="matrix(0.00708 0 0 -0.00708 107.43 340.00)"/><use href="#sans-362" transform="matrix(0.00708 0 0 -0.00708 116.31 340.00)"/><use href="#sans-35" transform="matrix(0.00708 0 0 -0.00708 124.56 340.00)"/><use href="#sans-151" transform="matrix(0.00708 0 0 -0.00708 135.38 340.00)"/><use href="#sans-210" transform="matrix(0.00708 0 0 -0.00708 143.84 340.00)"/><use href="#sans-187" transform="matrix(0.00708 0 0 -0.00708 149.52 340.00)"/><use href="#sans-130" transform="matrix(0.00708 0 0 -0.00708 162.22 340.00)"/><use href="#sans-190" transform="matrix(0.00708 0 0 -0.00708 170.36 340.00)"/><use href="#sans-240" transform="matrix(0.00708 0 0 -0.00708 178.72 340.00)"/></g></g>
  <g class="c" style="animation-delay:650ms">
    <g class="fl" style="animation-delay:0ms;animation-duration:7s">
      <g transform="rotate(0 745.0 112.0)">
        <rect x="600" y="34" width="290" height="156" rx="16" fill="#ffffff" fill-opacity="0.9"
              stroke="#ffffff" stroke-opacity="0.95" filter="url(#shadow)"/>
        <rect x="618" y="52" width="30" height="30" rx="8.4" fill="#e3eaff"/><svg x="624.6" y="58.6" width="17" height="17" viewBox="0 0 24 24" fill="none" stroke="#2b59ff" stroke-width="2" stroke-linecap="round" stroke-linejoin="round"><path d="M16 20V4a2 2 0 0 0-2-2h-4a2 2 0 0 0-2 2v16"/><rect x="2" y="6" width="20" height="14" rx="2"/></svg><g fill="#55627e"><use href="#mono-32" transform="matrix(0.01000 0 0 -0.01000 851.00 71.00)"/><use href="#mono-34" transform="matrix(0.01000 0 0 -0.01000 858.00 71.00)"/><use href="#mono-54" transform="matrix(0.01000 0 0 -0.01000 865.00 71.00)"/></g><g fill="#0b1630"><use href="#display-20" transform="matrix(0.01900 0 0 -0.01900 618.00 110.00)"/><use href="#display-109" transform="matrix(0.01900 0 0 -0.01900 628.72 110.00)"/><use href="#display-90" transform="matrix(0.01900 0 0 -0.01900 640.15 110.00)"/><use href="#display-90" transform="matrix(0.01900 0 0 -0.01900 644.98 110.00)"/><use href="#display-46" transform="matrix(0.01900 0 0 -0.01900 653.82 110.00)"/><use href="#display-108" transform="matrix(0.01900 0 0 -0.01900 665.82 110.00)"/><use href="#display-59" transform="matrix(0.01900 0 0 -0.01900 672.99 110.00)"/><use href="#display-68" transform="matrix(0.01900 0 0 -0.01900 683.74 110.00)"/><use href="#display-89" transform="matrix(0.01900 0 0 -0.01900 694.10 110.00)"/><use href="#display-13" transform="matrix(0.01900 0 0 -0.01900 708.93 110.00)"/><use href="#display-72" transform="matrix(0.01900 0 0 -0.01900 721.85 110.00)"/><use href="#display-114" transform="matrix(0.01900 0 0 -0.01900 732.34 110.00)"/><use href="#display-72" transform="matrix(0.01900 0 0 -0.01900 742.62 110.00)"/><use href="#display-90" transform="matrix(0.01900 0 0 -0.01900 753.28 110.00)"/><use href="#display-94" transform="matrix(0.01900 0 0 -0.01900 758.11 110.00)"/><use href="#display-102" transform="matrix(0.01900 0 0 -0.01900 769.30 110.00)"/><use href="#display-72" transform="matrix(0.01900 0 0 -0.01900 781.08 110.00)"/><use href="#display-105" transform="matrix(0.01900 0 0 -0.01900 791.74 110.00)"/></g><g fill="#55627e"><use href="#sans500-58" transform="matrix(0.00586 0 0 -0.00586 618.00 130.00)"/><use href="#sans500-130" transform="matrix(0.00586 0 0 -0.00586 628.95 130.00)"/><use href="#sans500-161" transform="matrix(0.00586 0 0 -0.00586 635.77 130.00)"/><use href="#sans500-190" transform="matrix(0.00586 0 0 -0.00586 643.20 130.00)"/><use href="#sans500-151" transform="matrix(0.00586 0 0 -0.00586 650.42 130.00)"/><use href="#sans500-217" transform="matrix(0.00586 0 0 -0.00586 657.47 130.00)"/><use href="#sans500-167" transform="matrix(0.00586 0 0 -0.00586 661.55 130.00)"/><use href="#sans500-146" transform="matrix(0.00586 0 0 -0.00586 664.58 130.00)"/><use href="#sans500-66" transform="matrix(0.00586 0 0 -0.00586 671.50 130.00)"/><use href="#sans500-190" transform="matrix(0.00586 0 0 -0.00586 680.70 130.00)"/><use href="#sans500-151" transform="matrix(0.00586 0 0 -0.00586 687.92 130.00)"/><use href="#sans500-368" transform="matrix(0.00586 0 0 -0.00586 698.17 130.00)"/><use href="#sans500-87" transform="matrix(0.00586 0 0 -0.00586 705.01 130.00)"/><use href="#sans500-151" transform="matrix(0.00586 0 0 -0.00586 712.62 130.00)"/><use href="#sans500-187" transform="matrix(0.00586 0 0 -0.00586 719.67 130.00)"/><use href="#sans500-195" transform="matrix(0.00586 0 0 -0.00586 730.32 130.00)"/><use href="#sans500-217" transform="matrix(0.00586 0 0 -0.00586 737.57 130.00)"/><use href="#sans500-151" transform="matrix(0.00586 0 0 -0.00586 741.54 130.00)"/></g><g fill="#2b59ff"><use href="#mono-31" transform="matrix(0.00950 0 0 -0.00950 618.00 148.00)"/><use href="#mono-1" transform="matrix(0.00950 0 0 -0.00950 624.46 148.00)"/><use href="#mono-56" transform="matrix(0.00950 0 0 -0.00950 630.92 148.00)"/><use href="#mono-125" transform="matrix(0.00950 0 0 -0.00950 643.84 148.00)"/><use href="#mono-123" transform="matrix(0.00950 0 0 -0.00950 650.30 148.00)"/><use href="#mono-125" transform="matrix(0.00950 0 0 -0.00950 656.76 148.00)"/><use href="#mono-127" transform="matrix(0.00950 0 0 -0.00950 663.22 148.00)"/><use href="#mono-166" transform="matrix(0.00950 0 0 -0.00950 676.14 148.00)"/><use href="#mono-42" transform="matrix(0.00950 0 0 -0.00950 689.06 148.00)"/><use href="#mono-45" transform="matrix(0.00950 0 0 -0.00950 695.52 148.00)"/><use href="#mono-15" transform="matrix(0.00950 0 0 -0.00950 701.98 148.00)"/><use href="#mono-46" transform="matrix(0.00950 0 0 -0.00950 708.44 148.00)"/><use href="#mono-15" transform="matrix(0.00950 0 0 -0.00950 714.90 148.00)"/><use href="#mono-32" transform="matrix(0.00950 0 0 -0.00950 721.36 148.00)"/><use href="#mono-47" transform="matrix(0.00950 0 0 -0.00950 727.82 148.00)"/></g><rect x="618" y="158" width="254" height="1" fill="#dae1ef"/><svg x="618.0" y="166.0" width="13" height="13" viewBox="0 0 24 24" fill="none" stroke="#16a34a" stroke-width="2.6" stroke-linecap="round" stroke-linejoin="round"><path d="M20 6 9 17l-5-5"/></svg><g fill="#0b1630"><use href="#sans-90" transform="matrix(0.00537 0 0 -0.00537 637.00 177.00)"/><use href="#sans-164" transform="matrix(0.00537 0 0 -0.00537 644.06 177.00)"/><use href="#sans-167" transform="matrix(0.00537 0 0 -0.00537 650.56 177.00)"/><use href="#sans-207" transform="matrix(0.00537 0 0 -0.00537 653.23 177.00)"/><use href="#sans-207" transform="matrix(0.00537 0 0 -0.00537 659.96 177.00)"/><use href="#sans-167" transform="matrix(0.00537 0 0 -0.00537 666.70 177.00)"/><use href="#sans-190" transform="matrix(0.00537 0 0 -0.00537 669.36 177.00)"/><use href="#sans-161" transform="matrix(0.00537 0 0 -0.00537 675.86 177.00)"/><use href="#sans-130" transform="matrix(0.00537 0 0 -0.00537 685.70 177.00)"/><use href="#sans-146" transform="matrix(0.00537 0 0 -0.00537 691.88 177.00)"/><use href="#sans-210" transform="matrix(0.00537 0 0 -0.00537 698.16 177.00)"/><use href="#sans-195" transform="matrix(0.00537 0 0 -0.00537 702.12 177.00)"/><use href="#sans-213" transform="matrix(0.00537 0 0 -0.00537 708.71 177.00)"/><use href="#sans-213" transform="matrix(0.00537 0 0 -0.00537 714.52 177.00)"/><use href="#sans-261" transform="matrix(0.00537 0 0 -0.00537 723.42 177.00)"/><use href="#sans-207" transform="matrix(0.00537 0 0 -0.00537 733.31 177.00)"/><use href="#sans-210" transform="matrix(0.00537 0 0 -0.00537 740.04 177.00)"/><use href="#sans-195" transform="matrix(0.00537 0 0 -0.00537 744.00 177.00)"/><use href="#sans-149" transform="matrix(0.00537 0 0 -0.00537 750.60 177.00)"/><use href="#sans-220" transform="matrix(0.00537 0 0 -0.00537 757.33 177.00)"/><use href="#sans-146" transform="matrix(0.00537 0 0 -0.00537 763.84 177.00)"/><use href="#sans-217" transform="matrix(0.00537 0 0 -0.00537 770.12 177.00)"/><use href="#sans-167" transform="matrix(0.00537 0 0 -0.00537 773.72 177.00)"/><use href="#sans-195" transform="matrix(0.00537 0 0 -0.00537 776.39 177.00)"/><use href="#sans-190" transform="matrix(0.00537 0 0 -0.00537 782.98 177.00)"/><use href="#sans-90" transform="matrix(0.00537 0 0 -0.00537 792.57 177.00)"/><use href="#sans-130" transform="matrix(0.00537 0 0 -0.00537 799.63 177.00)"/><use href="#sans-130" transform="matrix(0.00537 0 0 -0.00537 805.81 177.00)"/><use href="#sans-90" transform="matrix(0.00537 0 0 -0.00537 811.98 177.00)"/><use href="#sans-207" transform="matrix(0.00537 0 0 -0.00537 822.14 177.00)"/><use href="#sans-210" transform="matrix(0.00537 0 0 -0.00537 828.87 177.00)"/><use href="#sans-195" transform="matrix(0.00537 0 0 -0.00537 832.83 177.00)"/><use href="#sans-149" transform="matrix(0.00537 0 0 -0.00537 839.43 177.00)"/><use href="#sans-220" transform="matrix(0.00537 0 0 -0.00537 846.16 177.00)"/><use href="#sans-146" transform="matrix(0.00537 0 0 -0.00537 852.67 177.00)"/><use href="#sans-217" transform="matrix(0.00537 0 0 -0.00537 858.95 177.00)"/><use href="#sans-213" transform="matrix(0.00537 0 0 -0.00537 862.44 177.00)"/></g>
      </g>
    </g>
  </g>
  <g class="c" style="animation-delay:800ms">
    <g class="fl" style="animation-delay:1400ms;animation-duration:8s">
      <g transform="rotate(-3 599.0 273.0)">
        <rect x="466" y="214" width="266" height="118" rx="16" fill="#ffffff" fill-opacity="0.9"
              stroke="#ffffff" stroke-opacity="0.95" filter="url(#shadow)"/>
        <rect x="482" y="230" width="28" height="28" rx="7.8" fill="#e3eaff"/><svg x="488.2" y="236.2" width="16" height="16" viewBox="0 0 24 24" fill="none" stroke="#2b59ff" stroke-width="2" stroke-linecap="round" stroke-linejoin="round"><path d="m5 8 6 6m-7 0 6-6 2-3M2 5h12M7 2h1m14 20-5-10-5 10m2-4h6"/></svg><g fill="#0b1630"><use href="#sans600-55" transform="matrix(0.00635 0 0 -0.00635 520.00 249.00)"/><use href="#sans600-130" transform="matrix(0.00635 0 0 -0.00635 527.35 249.00)"/><use href="#sans600-190" transform="matrix(0.00635 0 0 -0.00635 534.82 249.00)"/><use href="#sans600-161" transform="matrix(0.00635 0 0 -0.00635 542.77 249.00)"/><use href="#sans600-220" transform="matrix(0.00635 0 0 -0.00635 550.90 249.00)"/><use href="#sans600-130" transform="matrix(0.00635 0 0 -0.00635 558.86 249.00)"/><use href="#sans600-161" transform="matrix(0.00635 0 0 -0.00635 566.33 249.00)"/><use href="#sans600-151" transform="matrix(0.00635 0 0 -0.00635 574.46 249.00)"/><use href="#sans600-213" transform="matrix(0.00635 0 0 -0.00635 582.14 249.00)"/></g><rect x="482.0" y="270" width="74.6" height="22" rx="11" fill="#ebf0fa"/><g fill="#0b1630"><use href="#sans500-23" transform="matrix(0.00537 0 0 -0.00537 492.00 285.00)"/><use href="#sans500-190" transform="matrix(0.00537 0 0 -0.00537 498.63 285.00)"/><use href="#sans500-161" transform="matrix(0.00537 0 0 -0.00537 505.25 285.00)"/><use href="#sans500-183" transform="matrix(0.00537 0 0 -0.00537 512.07 285.00)"/><use href="#sans500-167" transform="matrix(0.00537 0 0 -0.00537 514.84 285.00)"/><use href="#sans500-213" transform="matrix(0.00537 0 0 -0.00537 517.61 285.00)"/><use href="#sans500-164" transform="matrix(0.00537 0 0 -0.00537 523.53 285.00)"/></g><g fill="#2b59ff"><use href="#mono-10" transform="matrix(0.00950 0 0 -0.00950 535.15 285.00)"/><use href="#mono-125" transform="matrix(0.00950 0 0 -0.00950 540.85 285.00)"/></g><rect x="562.6" y="270" width="78.1" height="22" rx="11" fill="#ebf0fa"/><g fill="#0b1630"><use href="#sans500-35" transform="matrix(0.00537 0 0 -0.00537 572.55 285.00)"/><use href="#sans500-151" transform="matrix(0.00537 0 0 -0.00537 580.77 285.00)"/><use href="#sans500-210" transform="matrix(0.00537 0 0 -0.00537 587.24 285.00)"/><use href="#sans500-187" transform="matrix(0.00537 0 0 -0.00537 591.63 285.00)"/><use href="#sans500-130" transform="matrix(0.00537 0 0 -0.00537 601.40 285.00)"/><use href="#sans500-190" transform="matrix(0.00537 0 0 -0.00537 607.65 285.00)"/></g><g fill="#2b59ff"><use href="#mono-10" transform="matrix(0.00950 0 0 -0.00950 619.26 285.00)"/><use href="#mono-124" transform="matrix(0.00950 0 0 -0.00950 624.96 285.00)"/></g><rect x="482.0" y="298" width="109.0" height="22" rx="11" fill="#ebf0fa"/><g fill="#0b1630"><use href="#sans500-95" transform="matrix(0.00537 0 0 -0.00537 492.00 313.00)"/><use href="#sans500-180" transform="matrix(0.00537 0 0 -0.00537 500.14 313.00)"/><use href="#sans500-210" transform="matrix(0.00537 0 0 -0.00537 506.29 313.00)"/><use href="#sans500-130" transform="matrix(0.00537 0 0 -0.00537 510.50 313.00)"/><use href="#sans500-167" transform="matrix(0.00537 0 0 -0.00537 516.74 313.00)"/><use href="#sans500-190" transform="matrix(0.00537 0 0 -0.00537 519.52 313.00)"/><use href="#sans500-167" transform="matrix(0.00537 0 0 -0.00537 526.13 313.00)"/><use href="#sans500-130" transform="matrix(0.00537 0 0 -0.00537 528.90 313.00)"/><use href="#sans500-190" transform="matrix(0.00537 0 0 -0.00537 535.15 313.00)"/></g><g fill="#2b59ff"><use href="#mono-32" transform="matrix(0.00950 0 0 -0.00950 546.77 313.00)"/><use href="#mono-59" transform="matrix(0.00950 0 0 -0.00950 552.47 313.00)"/><use href="#mono-108" transform="matrix(0.00950 0 0 -0.00950 558.17 313.00)"/><use href="#mono-80" transform="matrix(0.00950 0 0 -0.00950 563.87 313.00)"/><use href="#mono-114" transform="matrix(0.00950 0 0 -0.00950 569.57 313.00)"/><use href="#mono-72" transform="matrix(0.00950 0 0 -0.00950 575.27 313.00)"/></g><rect x="597.0" y="298" width="100.4" height="22" rx="11" fill="#ebf0fa"/><g fill="#0b1630"><use href="#sans500-87" transform="matrix(0.00537 0 0 -0.00537 606.97 313.00)"/><use href="#sans500-220" transform="matrix(0.00537 0 0 -0.00537 614.10 313.00)"/><use href="#sans500-213" transform="matrix(0.00537 0 0 -0.00537 620.71 313.00)"/><use href="#sans500-213" transform="matrix(0.00537 0 0 -0.00537 626.64 313.00)"/><use href="#sans500-167" transform="matrix(0.00537 0 0 -0.00537 632.56 313.00)"/><use href="#sans500-130" transform="matrix(0.00537 0 0 -0.00537 635.33 313.00)"/><use href="#sans500-190" transform="matrix(0.00537 0 0 -0.00537 641.58 313.00)"/></g><g fill="#2b59ff"><use href="#mono-20" transform="matrix(0.00950 0 0 -0.00950 653.20 313.00)"/><use href="#mono-90" transform="matrix(0.00950 0 0 -0.00950 658.90 313.00)"/><use href="#mono-109" transform="matrix(0.00950 0 0 -0.00950 664.60 313.00)"/><use href="#mono-72" transform="matrix(0.00950 0 0 -0.00950 670.30 313.00)"/><use href="#mono-92" transform="matrix(0.00950 0 0 -0.00950 676.00 313.00)"/><use href="#mono-108" transform="matrix(0.00950 0 0 -0.00950 681.70 313.00)"/></g>
      </g>
    </g>
  </g>
  <g class="c" style="animation-delay:950ms">
    <g class="fl" style="animation-delay:700ms;animation-duration:6.5s">
      <g transform="rotate(3 842.0 256.0)">
        <rect x="752" y="204" width="180" height="104" rx="16" fill="#ffffff" fill-opacity="0.9"
              stroke="#ffffff" stroke-opacity="0.95" filter="url(#shadow)"/>
        <g fill="#55627e"><use href="#mono-13" transform="matrix(0.00950 0 0 -0.00950 768.00 234.00)"/><use href="#mono-1" transform="matrix(0.00950 0 0 -0.00950 774.84 234.00)"/><use href="#mono-23" transform="matrix(0.00950 0 0 -0.00950 781.68 234.00)"/><use href="#mono-30" transform="matrix(0.00950 0 0 -0.00950 788.52 234.00)"/><use href="#mono-56" transform="matrix(0.00950 0 0 -0.00950 795.36 234.00)"/><use href="#mono-46" transform="matrix(0.00950 0 0 -0.00950 809.04 234.00)"/><use href="#mono-47" transform="matrix(0.00950 0 0 -0.00950 815.88 234.00)"/><use href="#mono-1" transform="matrix(0.00950 0 0 -0.00950 822.72 234.00)"/><use href="#mono-11" transform="matrix(0.00950 0 0 -0.00950 829.56 234.00)"/><use href="#mono-29" transform="matrix(0.00950 0 0 -0.00950 836.40 234.00)"/></g><rect x="766" y="250" width="34" height="34" rx="10" fill="#ebf0fa"/><svg x="773.5" y="257.5" width="19" height="19" viewBox="0 0 24 24"><path d="M18.665 21.978C16.758 23.255 14.465 24 12 24 5.377 24 0 18.623 0 12S5.377 0 12 0s12 5.377 12 12c0 3.583-1.574 6.801-4.067 9.001L9.219 7.2H7.2v9.596h1.615V9.251l9.85 12.727Zm-3.332-8.533 1.6 2.061V7.2h-1.6v6.245Z" fill="#0b1630"/></svg><rect x="805" y="250" width="34" height="34" rx="10" fill="#ebf0fa"/><svg x="812.5" y="257.5" width="19" height="19" viewBox="0 0 24 24"><path d="M14.23 12.004a2.236 2.236 0 0 1-2.235 2.236 2.236 2.236 0 0 1-2.236-2.236 2.236 2.236 0 0 1 2.235-2.236 2.236 2.236 0 0 1 2.236 2.236zm2.648-10.69c-1.346 0-3.107.96-4.888 2.622-1.78-1.653-3.542-2.602-4.887-2.602-.41 0-.783.093-1.106.278-1.375.793-1.683 3.264-.973 6.365C1.98 8.917 0 10.42 0 12.004c0 1.59 1.99 3.097 5.043 4.03-.704 3.113-.39 5.588.988 6.38.32.187.69.275 1.102.275 1.345 0 3.107-.96 4.888-2.624 1.78 1.654 3.542 2.603 4.887 2.603.41 0 .783-.09 1.106-.275 1.374-.792 1.683-3.263.973-6.365C22.02 15.096 24 13.59 24 12.004c0-1.59-1.99-3.097-5.043-4.032.704-3.11.39-5.587-.988-6.38-.318-.184-.688-.277-1.092-.278zm-.005 1.09v.006c.225 0 .406.044.558.127.666.382.955 1.835.73 3.704-.054.46-.142.945-.25 1.44-.96-.236-2.006-.417-3.107-.534-.66-.905-1.345-1.727-2.035-2.447 1.592-1.48 3.087-2.292 4.105-2.295zm-9.77.02c1.012 0 2.514.808 4.11 2.28-.686.72-1.37 1.537-2.02 2.442-1.107.117-2.154.298-3.113.538-.112-.49-.195-.964-.254-1.42-.23-1.868.054-3.32.714-3.707.19-.09.4-.127.563-.132zm4.882 3.05c.455.468.91.992 1.36 1.564-.44-.02-.89-.034-1.345-.034-.46 0-.915.01-1.36.034.44-.572.895-1.096 1.345-1.565zM12 8.1c.74 0 1.477.034 2.202.093.406.582.802 1.203 1.183 1.86.372.64.71 1.29 1.018 1.946-.308.655-.646 1.31-1.013 1.95-.38.66-.773 1.288-1.18 1.87-.728.063-1.466.098-2.21.098-.74 0-1.477-.035-2.202-.093-.406-.582-.802-1.204-1.183-1.86-.372-.64-.71-1.29-1.018-1.946.303-.657.646-1.313 1.013-1.954.38-.66.773-1.286 1.18-1.868.728-.064 1.466-.098 2.21-.098zm-3.635.254c-.24.377-.48.763-.704 1.16-.225.39-.435.782-.635 1.174-.265-.656-.49-1.31-.676-1.947.64-.15 1.315-.283 2.015-.386zm7.26 0c.695.103 1.365.23 2.006.387-.18.632-.405 1.282-.66 1.933-.2-.39-.41-.783-.64-1.174-.225-.392-.465-.774-.705-1.146zm3.063.675c.484.15.944.317 1.375.498 1.732.74 2.852 1.708 2.852 2.476-.005.768-1.125 1.74-2.857 2.475-.42.18-.88.342-1.355.493-.28-.958-.646-1.956-1.1-2.98.45-1.017.81-2.01 1.085-2.964zm-13.395.004c.278.96.645 1.957 1.1 2.98-.45 1.017-.812 2.01-1.086 2.964-.484-.15-.944-.318-1.37-.5-1.732-.737-2.852-1.706-2.852-2.474 0-.768 1.12-1.742 2.852-2.476.42-.18.88-.342 1.356-.494zm11.678 4.28c.265.657.49 1.312.676 1.948-.64.157-1.316.29-2.016.39.24-.375.48-.762.705-1.158.225-.39.435-.788.636-1.18zm-9.945.02c.2.392.41.783.64 1.175.23.39.465.772.705 1.143-.695-.102-1.365-.23-2.006-.386.18-.63.406-1.282.66-1.933zM17.92 16.32c.112.493.2.968.254 1.423.23 1.868-.054 3.32-.714 3.708-.147.09-.338.128-.563.128-1.012 0-2.514-.807-4.11-2.28.686-.72 1.37-1.536 2.02-2.44 1.107-.118 2.154-.3 3.113-.54zm-11.83.01c.96.234 2.006.415 3.107.532.66.905 1.345 1.727 2.035 2.446-1.595 1.483-3.092 2.295-4.11 2.295-.22-.005-.406-.05-.553-.132-.666-.38-.955-1.834-.73-3.703.054-.46.142-.944.25-1.438zm4.56.64c.44.02.89.034 1.345.034.46 0 .915-.01 1.36-.034-.44.572-.895 1.095-1.345 1.565-.455-.47-.91-.993-1.36-1.565z" fill="#61DAFB"/></svg><rect x="844" y="250" width="34" height="34" rx="10" fill="#ebf0fa"/><svg x="851.5" y="257.5" width="19" height="19" viewBox="0 0 24 24"><path d="M1.125 0C.502 0 0 .502 0 1.125v21.75C0 23.498.502 24 1.125 24h21.75c.623 0 1.125-.502 1.125-1.125V1.125C24 .502 23.498 0 22.875 0zm17.363 9.75c.612 0 1.154.037 1.627.111a6.38 6.38 0 0 1 1.306.34v2.458a3.95 3.95 0 0 0-.643-.361 5.093 5.093 0 0 0-.717-.26 5.453 5.453 0 0 0-1.426-.2c-.3 0-.573.028-.819.086a2.1 2.1 0 0 0-.623.242c-.17.104-.3.229-.393.374a.888.888 0 0 0-.14.49c0 .196.053.373.156.529.104.156.252.304.443.444s.423.276.696.41c.273.135.582.274.926.416.47.197.892.407 1.266.628.374.222.695.473.963.753.268.279.472.598.614.957.142.359.214.776.214 1.253 0 .657-.125 1.21-.373 1.656a3.033 3.033 0 0 1-1.012 1.085 4.38 4.38 0 0 1-1.487.596c-.566.12-1.163.18-1.79.18a9.916 9.916 0 0 1-1.84-.164 5.544 5.544 0 0 1-1.512-.493v-2.63a5.033 5.033 0 0 0 3.237 1.2c.333 0 .624-.03.872-.09.249-.06.456-.144.623-.25.166-.108.29-.234.373-.38a1.023 1.023 0 0 0-.074-1.089 2.12 2.12 0 0 0-.537-.5 5.597 5.597 0 0 0-.807-.444 27.72 27.72 0 0 0-1.007-.436c-.918-.383-1.602-.852-2.053-1.405-.45-.553-.676-1.222-.676-2.005 0-.614.123-1.141.369-1.582.246-.441.58-.804 1.004-1.089a4.494 4.494 0 0 1 1.47-.629 7.536 7.536 0 0 1 1.77-.201zm-15.113.188h9.563v2.166H9.506v9.646H6.789v-9.646H3.375z" fill="#3178C6"/></svg><rect x="883" y="250" width="34" height="34" rx="10" fill="#ebf0fa"/><svg x="890.5" y="257.5" width="19" height="19" viewBox="0 0 24 24"><path d="M11.998,24c-0.321,0-0.641-0.084-0.922-0.247l-2.936-1.737c-0.438-0.245-0.224-0.332-0.08-0.383 c0.585-0.203,0.703-0.25,1.328-0.604c0.065-0.037,0.151-0.023,0.218,0.017l2.256,1.339c0.082,0.045,0.197,0.045,0.272,0l8.795-5.076 c0.082-0.047,0.134-0.141,0.134-0.238V6.921c0-0.099-0.053-0.192-0.137-0.242l-8.791-5.072c-0.081-0.047-0.189-0.047-0.271,0 L3.075,6.68C2.99,6.729,2.936,6.825,2.936,6.921v10.15c0,0.097,0.054,0.189,0.139,0.235l2.409,1.392 c1.307,0.654,2.108-0.116,2.108-0.89V7.787c0-0.142,0.114-0.253,0.256-0.253h1.115c0.139,0,0.255,0.112,0.255,0.253v10.021 c0,1.745-0.95,2.745-2.604,2.745c-0.508,0-0.909,0-2.026-0.551L2.28,18.675c-0.57-0.329-0.922-0.945-0.922-1.604V6.921 c0-0.659,0.353-1.275,0.922-1.603l8.795-5.082c0.557-0.315,1.296-0.315,1.848,0l8.794,5.082c0.57,0.329,0.924,0.944,0.924,1.603 v10.15c0,0.659-0.354,1.273-0.924,1.604l-8.794,5.078C12.643,23.916,12.324,24,11.998,24z M19.099,13.993 c0-1.9-1.284-2.406-3.987-2.763c-2.731-0.361-3.009-0.548-3.009-1.187c0-0.528,0.235-1.233,2.258-1.233 c1.807,0,2.473,0.389,2.747,1.607c0.024,0.115,0.129,0.199,0.247,0.199h1.141c0.071,0,0.138-0.031,0.186-0.081 c0.048-0.054,0.074-0.123,0.067-0.196c-0.177-2.098-1.571-3.076-4.388-3.076c-2.508,0-4.004,1.058-4.004,2.833 c0,1.925,1.488,2.457,3.895,2.695c2.88,0.282,3.103,0.703,3.103,1.269c0,0.983-0.789,1.402-2.642,1.402 c-2.327,0-2.839-0.584-3.011-1.742c-0.02-0.124-0.126-0.215-0.253-0.215h-1.137c-0.141,0-0.254,0.112-0.254,0.253 c0,1.482,0.806,3.248,4.655,3.248C17.501,17.007,19.099,15.91,19.099,13.993z" fill="#5FA04E"/></svg>
      </g>
    </g>
  </g>
</g>
<rect x="0.5" y="0.5" width="959" height="379" rx="27.5" fill="none" stroke="#dae1ef"/>
</svg>
